<svg width="1000" height="1000" version="1" xmlns="http://www.w3.org/2000/svg" xmlns:xlink="http://www.w3.org/1999/xlink">
  <g>
    <path d="M418 330h-13l-7 4-3 6v7l3 18 5 11 18 3 8 7 21 18 12 16 7 12-54 106 6 24-6 28-10 37 4 14-2 10 14 47 11 19 44 69 6 8-18 41-18 42-7 24-2 11 7 8h15l38-11 13-14 4-7v-29l57-4 8-9-4-16-20-29-22-36 38-129-15-30 35-68 6-68-18-44v-14l6-17 15-79-9-24 9-42-9-17-20-14-38-14v-19l14-56-19-33-23-9-55 24-6 6-7 20-8 9-8 4v31l-10 19v18l7 17 7 11 19 20-19 50-7 13z" fill="#FFF" fill-rule="nonzero"/>
    <g transform="translate(393 78)">
      <path d="M143 289h-23c2 7 13 8 23 0zm-9-30l-10-9-9-1s-2 4-1 5l6 5h14zM4 263l1 4 19-7c-2-2-3-7-5-7-8-1-13 3-15 10zm30-155c6-13 5-27-4-31 2 10-7 21 4 31zm99 210c-5-8-5-8 14-14h-33v2l8 3-10 5v2l21 2zM48 629l1 4c5 1 11 4 15 2 3-2 3-9 5-15l5-2v-2l-19-3c-3 5 11 16-7 16zm-9-401l8 11 6-12 2-5 3-7-7-1c-9 0-10 6-12 14zM17 576l19 56c1 2 4 2 6 4 1-3 4-5 3-8-2-13-4-26-8-38-3-6-3-19-20-14zm19-308l-4-1-6 16-1-1v-14h-3l-6 10-3-11c-12 15-8 27 7 31l13 3c8 2 13-2 14-10l1-18-3-3-4 2-1 7h-2l-2-11zm34 144c5 8 4 18 14 15 2-1 2-7 3-11 2-2 6-4 6-7 2-7 3-15 2-23 0-4-3-7-5-11l-5 11-1 2c-5-8-10-4-11 2-2 5-6 8-9 12-4 5-4 14-6 22l9 3c2 0 3-5 4-7l-1-8zm100-190c17-4 17-4 14-19l-1-22h2l3 26c5-1 7-3 7-5l6-27c4-9 0-15-6-20l-19-13c-16-8-34 2-38 21l17-2c-4 4-9 6-13 6l-25-3c-14-2-18 4-16 19 1 13-2 26-4 39l-3-1h-9c0 4-1 8 1 11s7 6 11 7l43 13c10 3 19 9 29 13 2-6 16-15 25-18 4-1 11-6 11-10-1-7-8-7-14-6l-16 6c-8-15-11-30-8-46h3v31zm-50 481c8 3 14 5 17-8 3-19 9-38 14-58 6-25 13-49 18-74 2-9 0-19-4-26-3-6-4-10-1-16 7-15 15-30 20-46 7-17 16-35 8-55-1-5-5-10-9-14l-8 5 16 27-3 2c-3-6-5-13-9-18-7-6-16-16-22-15-19 3-37 11-52 25-2 1-3 6-3 8 2 6 8 10 3 17-1 1 2 5 3 6-13 10-17 25-22 39-6 16-4 32 4 48-12 2-9 10-7 17 8 22 17 43 23 66 4 15 4 32 6 48l-4 1c1-34-9-66-19-98-14 12 5 18 2 28-6-3-8-2-8 5-1 16-5 33-5 49-1 8-9 18 2 26 11-8 30-2 40 11l-10-5c-10-6-11-5-15 5l-14 38-16 33-10 24-9 30c-2 7 3 12 9 12 2 0 5-6 6-10l4-15 3 1-3 22c10 3 14 0 14-10-1-4 0-7 1-11h2v17c18 2 8-14 15-21l2 15h4l6-14c6 4 9 1 9-6v-7c-2-15 0-29 7-42 3-5 1-12 2-18l-3-2-5 8-2-1 7-17c4-10 6-19-4-26zM76 236l4-13c-17 2-16 15-22 24l9-2-9 11-4-8h-4l-1 12c12 4 7 12 4 19-1 3 2 7 3 12l-7 15c-1 1 5 4 7 5l7 21c0 2 4 4 6 3l5-6 7-8 11-6 5 1c3 6 3 6 9 4-8-9-16-12-28-6l20-39c1 0 7-1 8-3l4-22-6-1-12-4-7-3-9-6zm84 154c-1 5-8 12 3 13 4 0 10-3 11-5 1-5-1-11-2-16l-10 7-3 2 9-14c18 1 23 13 25 27l4-1 1-3c-2-11-3-23-6-34-1-4-5-8-9-9-2-1-5 4-9 6l-5 1 4 4c-8 0-16-15-23 5v-11l-3-2-14 18c6-13 1-17-10-14l-7-2c-4 0-11 0-12 2-1 4-1 10 1 15 0 3 6 3 7 4-2 6-6 13-7 20-1 4 1 12 3 13 7 2 9-4 10-10l2-3c4 2 7 4 10 4 2 0 4-6 5-9l7-17 2 1-8 23c17 2 14-12 18-18l6 3zm19-59c12 0 3-8 6-11 3-2 6-5 7-8l-3-7-8 6-6 7c-3-2-9-7-10-6-12 7-23 15-33 24-3 2-5 11 3 11 12 0 23-2 35-4 7-1 11-5 9-12zM55 436l-8-9-9 11 2 2h8c-7 5-17 8-12 21l10-2c-12 6-17 16-17 29l-2 12-11 43c-1 4-3 12 5 10 10-2 14 4 21 8 3 3 9 5 13 3 8-2 8-17 20-15v-1l-3-1 5-3-1-3-10 6-7-17 8-1-3-9c13 3 12 3 15-8 4-12-1-19-9-26l11-9-9-2c13-2 15-13 17-23 0-2-6-6-9-8l10-5-1-5-13 1-21 14 6-8 4-8-10 3zm-3 160c1 4-7 12 4 13 7 0 14-2 20-3v-3H56c2-9 17 0 18-13l-16 4c0-2-2-4-1-6 3-8-2-10-8-9l-6-1 6 17 3 1zM22 117l4-24c1-9-3-22 11-26 2-1 3-6 6-12l13 28 15 23 8 13c6 10 14 15 28 12l-11 9c-1 3-3 7-2 9 0 2 6 4 8 3 5-1 10-4 14-7 6-4 11-9 16-15 2-2 4-5 4-8 3-10-7-20-2-31l-8-2 13-16c7-7 8-26 3-34l-7-11c-4-6-9-9-18-6-15 6-32 8-49 13-3 1-7 4-9 8s-2 9-3 13c-12-8-13-14-5-26C69 6 92-3 121 3l6 1c1 12 13 11 20 17 9 10 10 23 11 35 0 7-1 14-3 20l-9 18c-2 8-7 17-5 24 2 5 12 9 18 12 17 8 37 13 46 32 4 6 5 15 3 22-5 17-6 33 0 49 8 18 5 35-1 53l-18 51c-1 5 0 11 2 15 11 16 16 33 14 52-2 38-10 75-30 109-4 6-8 13-2 22 8 12 6 27 3 40l-22 73c-4 12-8 24-9 37-1 6 3 14 7 20 3 7 8 14 12 20h-24l-7-4-4 10 2 9c3 10 2 18-5 26l-4 11 33-1c9 0 18-3 27-5-2-8-3-18-6-26-3-7-8-14-12-20 8 12 16 23 23 36 4 8-2 17-11 18-8 2-16 1-24 1l-28 2-3 4v8c6 19-5 31-19 38-13 6-27 9-40 12-17 4-23-12-19-24 12-31 23-62 39-90 3-6 6-12-3-15-2 0-3-4-4-6-10-17-18-35-29-51-16-26-26-54-33-83-8-29 6-54 10-81 1-6 2-10-4-15-11-6-5-17-2-24 11-24 24-46 36-69l13-26c6-11-7-16-8-25l-3-6c-4-7-8-6-13-1l-9 12-5-12 1-10c1-11-2-17-14-18-9-1-13-7-13-17 1-5 0-10-2-15-2-8 5-17 15-18 8 0 10-1 8-10-2-4 2-10 3-15l12-44c4-11-7-11-10-17 13 7 27 13 36 27 4 7 19 11 27 6 7-5 5-12 4-20-3-13-14-17-23-23 9-1 16-8 15-17-1-8-8-12-19-10l5 27c-4-3-9-6-9-10-1-8 1-15 2-23 1-6 2-12-5-17l-6 11c-2-9 5-18-4-28l-2 26c-7-14 4-30-4-45-7 5-7 7-5 18 2 10 4 20-6 29-5 5-7 13 3 17 3 1 5 6 7 9l-2 2c-5-9-26-10-11-30l-9 4z" fill="#231F20" mask="url(#b)"/>
    </g>
    <g fill="#231F20">
      <path d="M483 628c15 31 26 63 29 98l-5-18-22-67-2-13M493 561l40-25 2 3-40 25-2-3M490 576l32-20 1 3-31 20-2-3M563 554l-17-25c6 0 6 0 19 23l-2 2M567 542l-16-25c8 2 15 13 16 25M457 579l-6 14c-5-5 1-23-17-18l24-18c-1 8-15 9-9 18 2 3 6 3 8 4M415 194c-7 17-1 32 4 48-13-16-15-35-4-48M461 131l24 5-1 4c-10 5-17 3-23-9M522 136c-7 9-15 7-23 5l-1-3 22-6 2 4"/>
    </g>
  </g>
</svg>