<svg width="1000" height="1000" version="1" xmlns="http://www.w3.org/2000/svg">
  <g fill="none" fill-rule="evenodd">
    <path fill="#FFF" fill-rule="nonzero" d="M553 107l-66-10-21 26v108l-21 16-55 37-25 38-6 39-10 36v26l6 19 21 15 23 8 29 5-7 12-11 26-11 30-40 65-10 31-12 29-44 42-28 31-30 28-23 52-17 26-33 32v12l10 6 98 32 23-8v-20l-7-10-31-12v-16l150-145 99-91 37 4 31 25 33 27 56 16 43 123v15l-6 21-7 21 4 12h9l43 6 23 8h22l32-8v-10l-27-8-27-11-14-10-9-13v-22l32-15v-17l-23-77v-38l-29-37-122-111-16-23-36-11 28-30 18-85 30 5 29 15 37-4 52-4 23-7v-15l36-31 24-19 6-30v-37l-12-23h-18l-9 7-5 32v44l-18 5-91 10-17-20-45-7-16-22-12-16-46-10h-25v-16l19-17 19 5 7-12 5-29-5-23z"/>
    <path d="M353 641h-3l-4 16 4 7 4-6-1-17zm372 98c-7-3-12-7-17-7-5 1-9 6-13 10l1 1 29-4zm82-504l-5-2-6 20c-1 2 1 5 2 7l6-4 3-21zm-80 475l-6 13 3 2 9-16 8 8-2-13c-7-2-14-1-21-1v5l9 2zm-384 25c10 5 27-1 28-8l-6-4-22 12zm51-180l34-14c-19-7-28-4-34 14zm96-425l19-2 4-4-10-1 2-2 15-6-12-9 1 9-11 2 2-6-5 3-5 16zm86 454c15 4 23-2 22-16l-4-11c-5 3-11 6-13 10-3 5-4 11-5 17zm32 2l-16 4-22 9 1 4c5 1 9 3 13 2 5 0 10-4 15-4 14-1 15-2 9-15zm38-274c3-20-15-4-17-14h-4l-3 6 6 23c2 11 6 5 11 1l17-14 7-6c-6-9-12-9-17 4zm-168 96c-9-5-9 1-10 7 11 4 21 7 29-3 9-12 15-25 23-38l-4-2-11 19c-2 2-6 5-7 4-3-1-5-5-6-8v-10h-3l-2 12c-14 1-7 12-9 19zm210-65l-5-1-7 36-1-1 1-16c-7 5-12 10-16 15-2 4-2 9-1 12 1 2 6 2 9 2l13-1c16-2 19-8 11-24l-4 15-2-1 2-36zM539 557l15-2 5-6v-14c1-8 2-16 1-24 0-5-3-9-5-14 1-2 0-3-1-3-13-6-14-6-14 9l-2 45 1 9zm-9 58c15 8 27 2 28-18l1-24c2-13 1-13-11-12-9 1-11 5-10 13v15l-8 26zm198 177l-9 14c-4 8-2 13 7 11l39-8c9-3 14-10 11-20-4-19-9-37-15-55 0-2-3-3-4-3l-3 6-3 40-5 26-18-11zM499 390l7-11c5-8 8-17 14-25 20-26 31-55 33-87 1-15-1-17-14-17-4 17-6 35-11 51l-23 57-1 2c-18 6-10 18-5 30zm18 25l-2-3c-5 2-11 2-15 5-8 6-15 7-24 5-3-1-7-3-10-2-4 1-9 3-10 6-3 7-3 15-4 22l2 1 15 3c19-1 19-1 19-15l25 24c2 1 10 0 11-2 4-9 7-19 9-29 0-3-4-7-6-11l-8 5-7 1 5-10zm48-5l-5 10c-2-3-5-6-6-5-6 1-11 1-15-4l-6 2c0 2 0 5 2 6l7 4-15 44h6l28-3c4-1 10-2 12-5 4-5 5-12 8-19h-8c4-6 10-11 11-17l7-45-3-2-22 23-4-3-14 11 2 3h15zm150-55h4l2 28h5v-11-13c7 7-1 19 13 25l-3-29 4 1 2 5c0 23 4 20 23 14l2-4-9-3-2-38c-1-3-6-9-8-8-17 1-33 4-49 6-3 1-7 5-7 7l8 50 5 2v-31h3l1 20 4 8 4-8-2-21zm-16 327l-2-1 11-24 15-22-10-8c-12-8-15-8-21 4l-19 47v10l4 1 7-15c-3 8 1 22-14 20 1 15 10 23 22 21 7-1 17-5 19-10 4-9 2-21 3-34l12 13c4 3 7 8 11 9 3 1 8-4 11-7 6-8 4-19-4-25l-4-6-15-18-26 45zM291 902c-1-10-7-14-14-16-12-2-22-6-28-17l-9-5c-13 0-24-4-34-13-5-5-11-7-17-2l-23 24c-5 6-5 13 5 16l65 20c6 2 14 0 18 9 0 1 9 1 10-1 5-9 12-10 20-5l6 1 1-2-17-13 1-2 16 6zm249-721l-2 4-28-15c-3-2-6-4-9-3-2 0-4 4-4 7 1 15-8 25-17 35-6 6-6 12 0 18l18 19 23 32 9-27-13-2 2-12c2-7-7-14-12-9v12l-14-31c8 4 14 9 20 13 10 8 15-1 22-6l-19-17 2-2 29 17c8 4 14 1 16-9 1-8 1-16 4-23 4-7 3-13-2-18-3-2-9-2-11-2l-15-8 14-2c3-2 7-5 7-7 0-6-2-12-4-17-1-1-8 0-11 2-4 3-7 9-11 10-12 2-11 13-14 20s0 11 6 14l14 7zm6 216c11-5 21-7 25-13 5-8 12-9 19-12 4-2 10-4 12-8 6-14 15-29 12-46l-5-27c-2-23-29-41-48-36-4 21-7 40-13 58-6 19-16 36-24 54l2 2-19 37 4 2c14-9 13-32 31-39l-20 32-1 8c3 1 7 2 9 1l13-18 9-22 3 1-9 26zm65 159h2v39l8-4 3 15-20 5c-2 0-4 3-5 5 2 1 4 3 7 3 5 0 12-2 16-1 14 5 14 5 14-10l1-6 6 22c2-5 2-9 4-10l15-10c1-1 4 2 3 1l-15 17c-4 3-9 8-14 8-9 2-19 1-29 1l-15 5c12 11 25 7 35 7 11-1 21-4 32-7l-7 14c-10 0-18-2-25-1-4 1-6 8-9 12 1-11-3-13-12-9h-5l-19-3-1 4c3 4 6 8 10 10h11c-1 8 4 13 13 10 2-1 5-1 6 1 7 7 10 2 13-3l8 9 4-11 2-10 2 1-1 19h5c15 5 14 5 20-11 5-15 11-29 18-43 4-6 4-9-1-14l-61-57-7 6c1-14-7-27-22-34 2-8-5-17-15-18-9-2-10 5-10 11v25c0 4 0 9 2 10 3 1 7 0 10-1l20-9-6 20c-2 6-4 13 5 18l4-26zM252 768c5 1 9 3 13 2 16-3 33-6 48-13 12-5 22-17 32-26 7-7 14-14 22-18 8-5 20-5 25-11 16-18 39-24 55-41 18-18 46-24 57-51 6-13 9-25 10-37 1-4-4-10-6-10-9 1-20-10-27-1-6 8-6 19-9 29l2 1 14-12-3 11 3 2 17-21c-11 15-6 36-19 50l5-23-4-1-11 30-3-1 10-35-16 10 5-27 2-17c-5 5-10 9-12 15-4 10-6 20-8 30l-3-1c0-16 6-31 14-48-13-1-23-4-34 2l-47 23c7-7 16-12 24-17s19-4 25-15c-22-4-54 19-60 43 9-1 16-2 23-5l28-11c3-1 6 1 9 2l-5 13-3-10h-2l-2 14-9-10-1 16-8-14-5 11c-12-9-10 0-9 10l-8-11c-8 3-15 4-20 15-9 15-3 29-3 44l4 7c2-2 4-5 4-8v-19l5 1-2 21c18 3 7-15 16-19l1 13h3l5-16 5 11 6-11 1-9h1l3 11 2 1 9-17v14c15 0 7-15 15-19l3 6 17-10-8 24-3-8c-3 3-6 6-10 7l-24 10c-21 8-39 22-62 24-9 1-17 7-25 12a72 72 0 0 0-33 41l40-9c-24 13-55 11-76 38l36-5c-9 4-18 8-26 7-15-2-23 6-30 16-4 6-5 13-7 19l21-10c2-1 2-5 3-9zm213-392c4-2 7-5 11-6 9-2 14-5 11-11 6-9 11-16 14-24 8-14 14-28 20-43 1-3 1-8-1-11-6-10-14-19-21-28-5-5-8-6-11 2l-8 22 32 29c-30-10-40-39-55-61l-53 32c-32 22-41 54-40 91l2 10-7-3c-14 43-10 64 15 76l4-20-9-2 3-7 6-10 6-3 10-1 22-16c2-2 1-7 2-11-4 1-9 0-12 2-4 3-6 8-10 12v-1l4-9-3-2-20 18c-1-12 4-21 18-27-15-3-19-10-14-22 6 3-4 16 9 16l2-17h3l-1 14 12 1c5 0 9-2 14-1 13 1 19-3 22-17 1-3 0-7 2-10 1-3 4-5 7-7l1 9c2 7-5 16 4 22l-8 6 13-2c-6 3-13 5-19 9-5 2-9 7-13 11l3 4 15-6c-2 9 2 11 10 7l9-3c11-1 13-4 11-16l-12 4zm-20 151l-8 17c12-6 22-13 32-21 24-20 24-21 32-20l-53 41c17 10 18-12 30-11l-5 5-5 11 10-5 23-19 2 2-25 22c10 3 18 6 26 7 3 1 10-1 10-2v-17l-11 4-4-1c6-3 11-5 14-9 2-2-2-8-3-12l10-8-1-3h-16l14-6c2-2 4-4 4-6l-3-6c-14-7-30-8-46-9-5 0-10 5-16 7l2-7-11 1 1-2c-6-3-17-8-18-6-5 6-7 14-11 23l11-3c-3 4-6 6-10 8-9 5-13 12-11 23 0 2 2 5 3 5 6 2 19-13 18-20l-15 10-2-3 44-29-7 7c-11 8-16 22-12 36l7-4zm-30-104l9-17-2-2-12 11c-8-10-15-4-19 2-6 9-9 20-13 30-3 10 3 13 10 13l11-35 2 1-8 35 58 4-3-8c-2-7-6-15-5-22 0-7 6-14 9-21 2-3 2-7 3-12l-26 5-14 16zm240-93l2-10-3-2c-6 7-11 18-19 20-14 5-8 11-4 17 1 2 4 4 7 5l4-5 12-23-12 34 12-2c11-3 15-13 22-21 8-8 5-14 1-21-6-8-12-8-17 1l-5 7zm-178-80l-2 17c10-8 14-18 10-26l-8 9 6-15c-10-1-14 7-12 22l6-7zm47-10l53 12c16 3 29 10 37 24 7 11 16 16 28 17l29 5c1 16 8 21 22 19l66-6 22-2c-17 13-24 28-14 49 18-3 23-18 33-28 5-3 9-7 14-8 8-3 13-6 14-15l8-53h-4l-7 14-9-6 2-19c0-5 6-12-7-16v83h-2l-7-43c-20 9-6 27-8 41h-4c-1-10-5-21-4-32 1-12 6-24 8-36 2-11 8-19 19-18 6 0 11 6 16 9 17 11 8 28 9 43 1 11-3 22-4 33s-8 16-16 21c-6 3-12 6-16 11-8 6-16 13-22 21-3 4-5 10-6 15-2 7-4 11-12 11l-82 10c-20 2-40 3-57-10l-8-4c-13-6-14-5-17 9l-14 66c-3 9-9 17-13 26 16 12 26 29 44 34 1 4 0 9 2 12 2 5 7 9 11 13l77 73c13 11 28 22 40 35 6 7 11 18 12 27 1 35 15 66 25 99 6 17 4 32-7 37a218 218 0 0 1-74 16c-6 0-12-6-16-8-2-21-3-41-6-60-3-16-9-31-14-46-6-14-18-18-32-21-10-2-19-8-28-13-4-1-7-3-10-6l-30-22c-18-12-34-29-59-22-7 2-14 6-19 11l-58 59-38 34-18 19c-19 24-36 50-57 71-14 14-27 32-49 38-4 1-7 5-11 7v4l24 8c13 3 23 18 19 29-1 3-3 6-6 7-15 12-34 11-50-1-6-4-15-4-22-6-18-6-37-11-54-18-11-4-13-12-6-20 8-11 19-20 28-30 2-2 6-3 6-5-1-19 17-29 22-45 9-29 30-47 53-65 8-7 13-17 20-25 9-9 17-20 28-26 12-8 20-17 23-30 10-41 32-77 55-111 4-7 5-16 8-24l15-31 4-10-10-3c-12-3-24 5-35-3-16-13-35-24-36-47 0-13 4-26 7-39l10-41c6-40 29-64 64-81 14-7 25-21 36-32 2-2 2-7 1-10l-9-28c-8-23-10-47-4-71 2-9 11-17 18-23 17-15 36-15 56-5 8 4 19 4 29 7l13 4c6 3 7 8 1 13s-7 10-2 18c2 3 2 8 3 12l9 30c1 2 3 5 2 7l-8 32c-2 9-7 13-16 9-7-3-14-2-19 7-8 5-8 5-9 13zM822 892c1-7-1-10-8-11-19-2-36-9-50-21-8-6-14-15-21-22l3-3 3 2c14 22 35 33 60 38 8 2 19 2 21 15 1 7 0 10-7 9-12-1-23-1-35 5-6 3-16-3-25-5-14-2-28-6-43-7-15 0-26 0-30-10-1-3-2-7-1-10 3-12 7-24 13-35v9l-8 29c-1 5 0 9 6 9h21c16 0 31 5 46 12 6 3 15 2 22 2l27-5 6-1" fill="#231F20"/>
    <path d="M414 740l-54 69-3-1 1-7 53-63 3 2M433 752l-33 36-3-3 33-36 3 3M776 668l-8-25c9 0 13 10 8 25" fill="#231F20"/>
    <path d="M444 564l-9 24c14-7 16-13 9-24" fill="#FEFEFE"/>
    <path d="M444 564c7 11 5 17-9 24l9-24M662 651l17-45 4 2-17 44-4-1M596 320c0-9-2-16-12-17-9-1-12 7-14 15 0 4 0 9 2 13 2 5 6 9 9 13 4-4 9-7 12-12 2-3 2-8 3-12m-18-24c22 7 29 32 14 49-6 7-17 5-21-3-9-19-8-29 7-46M445 527c8-12 20-16 31-21l2 2-33 19zM474 493l-27 14-2-3 27-15 2 4M422 457l11-36 3 1-9 36-5-1M412 452l14-36 3 1-14 37-3-2M415 423l-11 31c-4-4 2-21 11-31M552 455l30-57 3 1-7 16-17 38c-1 2-5 3-7 4l-2-2M559 427l-15 26-4-2 16-25 3 1" fill="#231F20"/>
  </g>
</svg>
