<svg width="1000" height="1000" version="1" xmlns="http://www.w3.org/2000/svg" xmlns:xlink="http://www.w3.org/1999/xlink">
  <defs>
    <path id="a" d="M0 1h274v846H0z"/>
  </defs>
  <g fill="none" fill-rule="evenodd">
    <path d="M538 842c-5 2-11 13-17 33l12 20 20 30c15-1 23-3 24-6 2-5 3-31-1-35l-21-22c-7-16-12-22-17-20z" fill="#FFF" fill-rule="nonzero"/>
    <g transform="translate(363 82)">
      <mask id="b" fill="#fff">
        <use xlink:href="#a"/>
      </mask>
      <path d="M105 258l-8 6 5 13 3-1v-18zm113 167c15 2 17-1 14-12l-14 12zm-18 208l-4 4 6 8 8-7-10-5zm-36-288l12 18 3-2-7-16h-8zm96-20l-11-9-4 4 7 10 8-5zm-11-71l1 5c5-1 10-1 14-3 2-1 2-6 2-9l-2-1-15 8zM117 397h-4c-2 10-6 19-2 29h4l2-29zm68 282l2 3 13-7 6-6-11-8-1 3 7 4-16 11zm9 30l-24 3c9 13 14 13 24-3zm-15-65l-1 16h3l-10 6 14 4 3-15-9-11zm52-345l-7 5h15c7-8 7-9-4-22l-4 17zm-131 34l-4-23-13-1c8 8 3 20 17 24zm133 290c-6 4-14 24-11 28l4 2c1-1 4-3 4-5l3-25zm-58-223h-3l-4 23 3 7 6-4-2-26zM32 235l1-3-7-22h-4l-2 21 12 4zm153 197c-1 6-2 10-1 14 0 3 5 6 6 6l23-11v-4l-28-5zm2 37l37-19c1-1-1-6-1-9l-8 1-7 4-23 14-2 6 4 3zm78-178l3-2v-17c0-3-5-8-6-8-7 2-17-2-19 9-1 1 0 4 1 5l21 13zm-98 69h-4l-4 62c-1 2 2 4 5 7l2-10c1-8 3-16 6-23 5-11 3-26-5-36zm48-41c-7 6-9 22-6 26 4 6 22 8 29 5 10-4 7-13 6-20 0-2-6-4-9-7l-3 9 1 6c-3-2-3-4-4-6l-4-5-4 6 1 9-3 1-4-24zm-167-4v17c1 4 4 10 7 10 7 2 16 3 24 3 3 0 9-5 9-7-1-6-5-11-7-17l-11 9H59c2-13 2-13-11-15zm75 65l3 1-1 6-7 29c-1 6 1 11 8 10 5-1 8-3 6-10-1-3 0-7 1-10l6-53-3-8-6 6-7 29zm32 47l1-14 1-35c0-7 3-14 4-21 1-10-9-7-13-12-2 3-6 6-6 9-3 19-5 39-6 58l-1 12 5 1 7-35 4 1c-2 8-3 17-6 25-2 8 1 10 10 11zm66 257l-4-1c-5 11-10 22-13 34-4 11-6 22-9 34l-3-1 3-8 1-12-9 6-5 6c-9 1-9 7-10 14l16 1c18 0 18-1 20-18l7-30h2l-9 48 5 1c2-3 5-6 6-10l3-36-2-7-1-10 2-11zM115 838c14-4 18-10 15-22l-7-24c-1-7-1-13-3-19-1-4-4-6-6-8l-5 9c-2 5-2 11-5 14-10 8-14 21-8 34l7-1 1 10 8-4 3 11zm-15-449c2-2 5-5 5-9 1-2-3-4-5-7l7-4 1-6-4-3c-12 10-25 19-33 31-5 8-2 22-1 32 1 13 12 9 20 10 7 1 11-3 11-11l1-24-2-9zm22-270c7 22 12 40 19 58 1 5 6 5 10 0 9-11 19-22 26-34 3-4-2-13-5-18-1-2-5-3-8-3h-17l-25-3zm96 274l3-1 2 22h3l6-9c5-15-2-27-7-40-1-5-5-10-11-11-3-1-7-4-8-7-4-10-12-9-20-8-6 1-8 3-6 10 3 15 4 30 5 45l1 17h2l5-23 3 1-5 32c-1 12 10 9 16 11 7 2 10-1 10-7l1-32zM126 85c-8 5-7 11-1 16l17 14c17 9 37-3 38-21V83c7-8 8-18 7-28 0-7-1-12-11-7-6 4-12 3-14-6l15-1c3 0 6-2 7-3 4-10-9-24-19-23l-15 4-27 19 2 3h18l-6 10c-4-1-10-2-12-5-5-6-7-4-11 1-9 12-5 27 12 38zm-3 120l-3 1-4-8c-4-14-9-29-12-44-2-10-7-8-13-5l-31 13c-14 7-25 16-29 31-2 8 0 17 0 26l4-1 3-16h2l-4 36h4l6-27v31c0 5 5 11 9 15 1 2 7-1 10-1l10-1c-20-8-20-12-16-41l10 2c-5 12-1 17 11 17-3 13-1 23 13 30 0-3 2-8 1-9-11-4-3-12-5-18l4 10 4-18 2 1-2 24h3l5-9c4-10 7-20 16-28 6-6 11-14 15-21 2-3 5-8 4-11l-15-40c-1-3-5-5-8-7-3 3-7 7-8 11-1 5 2 11 3 16l11 41zm-82 76l-2-6-26-15v-3l20 3 7-1v-6c-5-9-12-15-23-18l-8 22-4 20c-1 12 10 29 22 32 3 0 7-1 10-3l20-14h8l-8 5c2 5 3 10 5 12 3 3 8 5 12 6 1 1 4-1 6-2l-4-8-2-7c0-16-2-19-18-17l3-2 5-8c-3-1-8-3-10-1l-13 11zm157 25l-4-5-2 1-3-7c-5 4-8-3-11-2-3 0-6 2-6 4l-8 28 3 5c12 4 20-1 21-13l1-8 9-3-4 16c-1 3 1 5 2 8l8-5 1-8 3-13c2 8 5 10 10 3 3-4 8-9 8-14 0-4 7-14-5-14 4-6 12-12 12-18-1-20-4-39-6-59h-3l-2 6-3 21-6 32c-1 3 3 7 2 9l-17 36zm-41 137l-28 23c5 0 8 2 10 1 12-7 24-13 35-21 2-1 1-6 1-9h-8l-10 6 7-10-2-3-11 4c-4 1-7 4-10 6l8-11h-33c-2 0-6 3-6 5-2 7-2 13-3 22l12-5 23-11-54 36 2-3 2-8c0-1-4-3-5-2-2 1-5 3-6 6-3 7 2 7 7 7l-9 11 2 1 20-10-2 2c-20 10-27 26-28 48l-4 78c-1 11 8 13 17 14 3 0 7-2 11-4l-1-3 8 1c15 3 20 0 23-15l7-26 5-34c-11 0-16 10-25 5l21-9c3-1 4-6 6-10-3 0-7-1-10 1l-20 8-1-3 7-4 25-7 6-8c-3-1-7-3-10-2l-19 8-9 3-1-3 48-19 2 24 3 1c15-24 40-30 63-39l-1 4c-16 1-24 14-34 25l-14 18 12-24c-13 4-22 13-28 24-2 3 1 8 2 12l14-13-8 15c-3 5-4 10 4 14 11-18 16-40 38-53l-11 14-25 44c-1 2-1 6 1 9 5 13 2 30 17 39 2 1 1 5 3 7 3 4 7 11 10 11 4 0 9-6 13-8 3-2 7-7 9-6 12 5 11-3 11-10l-3-84-3-46c-1-8-5-9-11-6-11 4-21 10-32 15l-16 8-2-4 59-27c-3-9-3-9-11-5l-36 18c-3-8-7-11-15-5l-45 26-23 13c-1-2 0-4 1-4l73-41 5-9c-3-1-8-5-10-3-7 3-16 7-21 13-5 7-10 9-17 10l1-7-7-1-10 5 44-30zM91 635l-16 9 8 10c-3 13-1 17 8 16-1 5-3 10-2 14 0 3 5 6 9 7 1 1 5-3 5-3-4-12 8-15 11-23l7-22-4-2-12 12 5-9 9-17-4-3-16 16-16 14 10-11c1-2-1-5-2-7l19-13-2-2-40 2c5 16 7 17 23 12zm-3-279l4-10-17 5-2 14 16-9-18 20 2 3 43-30c-3-1-9-4-13-3-6 1-10 7-15 10zm154-120l19-23-14 6c7-7 12-14 6-24-2-2-1-4-2-6-6-11-8-26-21-32s-27-10-40-15c-2 0-6 1-8 3l-10 13c-8 11-15 23-24 34-10 14-20 27-31 39-10 11-1 19-1 28h3l2-13 3 2 62-89 3 1v4l-57 82-32 48c-1 3-3 6-3 10l4 20c1 3 5 5 7 7l2-2-3-30h4c0 6 0 12 2 18 0 3 4 6 6 9 2 10 9 8 15 4 2-1 2-7 3-11l-9 1-8 4-2-17 2-17 4 1v26h2l6-36c7 15 6-3 10 1l-3 24 5 2 10-30 2 1 1 7 7-9h1l-11 45-7-13c-2 5-6 10-7 15-1 8 3 10 10 7 3-2 7-1 8-1l13-39c5-13 7-25-6-35-5-3-6-11-9-17l3-1 4 10 8 8c3-4 6-7 7-11 1-2-3-5-4-8l-4-1c21-21 25-50 34-76l-2 17c-2 7 0 16-3 22-11 15-8 29-5 45l-9-6-7 16c-6 10 1 17 6 24 0 1 8-1 11-4 3-2 4-7 6-10l-2 13c9-8 16-26 12-36l-10 23 1-10-2-7-6 5c-2 4-2 9-3 14l-2 6-4-1 9-27c16-2 21-7 25-25 2-12-2-21-14-28l9-27 2 1-3 14h2l6-11c0 6-2 10-4 15-1 4-6 10 4 13l9-22h3v52l8-4-8 17 3 1 7-4-4 14 4 1 17-17c2-2 1-6 1-9l-8 2-11 9zM92 285c-2 2-6 4-6 6 0 4 3 8 5 12l4-2-3-17 5 6c2-5 2-10 1-14l-4-3c-1 1-3 3-3 5l1 7zm106 539l8 10 2-1 5-19c0-5-3-11-6-15-5-7-12-13-19-19l3-4 16 16c10 8 15 18 14 31 0 9-5 16-10 19-8 5-18 7-25 0-8-9-13-20-20-30-2-4-4-9-8-12-6-4-8-9-5-15l7-13c1-3 4-43 4-59l1-70c0-9 4-17 6-26 3-6 4-10-3-15-3-2-2-7-3-11l-13-52c-1-3-3-6-7-7l-10 53-4 18c-4 14-7 28 1 42 3 5 1 12 1 18l1 101c0 9 4 17 7 26l4 14c-12 0-11 5-10 14 3 19-13 33-29 28-19-7-27-25-20-43l14-27c2-4 3-9 2-11-2-2-7-3-11-2l-11 5c-3 1-6 3-7 2-2-1-3-4-4-7l-8-77v-21l-3-80v-40c2-22 7-44 10-65l6-36c0-3-2-6-4-9-2-5-7-11-7-16l7-62c1-7-1-10-7-9-16 1-22-9-27-21-3-6-9-13-15-16-16-6-21-20-21-34 0-12 5-24 8-37l6-17c7-30 18-57 48-71 13-5 27-8 40-14 7-3 12-10 18-16 1-1 0-6-1-7-3-1-7-2-9 0-7 4-9 2-9-5V74l-2-10c-4-15 7-44 20-53l17-9 7-1 30 10c14 6 16 19 17 31 2 13 2 26 0 39-1 8-6 17-10 25-6 10-2 22 8 28 10 7 20 11 32 13s21 9 27 21c20 38 27 78 27 120 0 6-5 13-7 20l-3 3c1 14-8 24-14 35-3 4-7 9-11 10-6 3-7 5-6 11l7 54c0 3-2 8-4 9-9 4-8 12-6 18 9 33 10 66 9 100-1 9 2 19 3 28 3 31-5 60-9 90l-4 46-4 40c-1 9-8 13-18 12l-28-2c-5 0-9 1-10 8 0 3-1 5-3 8l-5 12c0 4 2 9 9 12l3 6 15 29c1 2 7 1 10 2l-1-9-2-4 3-2z" fill="#231F20" mask="url(#b)"/>
    </g>
    <path d="M476 555l11-5h6l-1 8c-21 3-35 20-50 33l50-34c7 0 13-2 17-9 5-6 14-10 22-14 2-1 6 2 9 4-1 3-2 7-5 9l-72 41c-2 0-2 1-2 4l24-13 44-26c9-6 12-4 16 5l36-18c8-4 8-4 11 4l-59 28 2 4 16-8 32-16c6-2 10-1 11 7l3 46 3 84c0 7 1 15-11 10-2 0-6 4-9 6-4 3-9 8-13 8s-7-7-11-11c-1-2-1-6-3-7-15-9-11-26-17-39-1-3-2-7 0-9l25-45 10-14c-21 13-27 35-37 54-9-4-8-9-5-14l9-15 14-17c10-11 18-24 34-26l1-3c-23 9-49 15-64 39l-3-1-1-24-48 19 1 3 8-3 20-9 10 2c-3 3-4 7-7 8-8 4-16 5-24 8l-8 4 1 3 21-9h10c-2 4-4 9-7 10l-21 9c9 5 14-6 25-5l-5 34-7 26c-3 15-7 18-23 15l-7-1 1 3c-4 2-8 4-12 4-9-1-17-3-17-14l4-79c1-21 9-38 29-47l2-2 11-5M603 304l-8 3v-51l-2-1-9 23c-10-3-6-9-4-13 1-5 4-9 4-15l-7 11h-1l3-14-3-1-8 27c12 7 16 16 13 28-4 18-9 23-24 24v1c-4-16-6-31 4-45 4-6 2-15 3-23 1-5 3-10 3-16-10 26-13 55-35 76l4 1c2 2 5 6 5 8l-7 11-8-8-4-10-4 1c3 6 5 14 9 17 14 10 11 22 7 35l-13 39c-2 0-5-1-8 1-7 3-11 1-10-7 1-5 4-10 7-15l7 13 11-45h-1l-7 9a16330 16330 0 0 0-4-8l-10 30-5-2 4-24c-4-4-4 14-10-1l-6 36h-3v-27h-3l-2 17 2 17-2 2-6-9-2-18h-3l3 30-2 2c-2-2-6-4-7-7l-4-21a2051 2051 0 0 1 34-58l57-81 1-4-3-2-63 90-2-2-2 13h-3c-1-9-9-17 0-28 12-12 22-26 32-39l23-34 11-13c2-2 5-3 7-3 14 5 27 9 40 15s15 20 21 32l2 6c7 10 1 17-5 24l-7 3zM486 287l-11-41c-1-5-4-11-3-16 1-4 6-7 9-11 2 2 6 4 7 7l15 40c1 3-2 8-4 11-4 7-9 15-15 21-9 8-11 18-16 28l-5 9h-3l3-24-3-1-4 18-4-10c2 6-6 14 5 18 1 1 0 6-1 9-14-7-16-17-12-30-13 0-17-5-12-17l-10-2c-4 29-4 33 16 41l-9 1c-4 0-10 3-11 1-4-4-9-10-9-15v-31l-5 27h-4l4-36h-3l-3 16-4 1c0-9-2-18 0-26 4-15 15-24 29-30l31-14c6-3 11-5 13 5l12 44 4 8 3-1M489 168c-17-12-21-26-12-39 3-5 6-7 11 0 2 3 8 4 12 4l6-9h-18l-2-3 27-19c4-3 9-3 14-4 11-2 24 13 20 22-1 2-4 4-7 4h-15c2 10 8 11 14 7 9-6 10 0 11 7 0 10 0 20-7 28-2 2 0 7 0 11-1 18-21 30-38 21l-17-14c-7-5-8-11 1-16M569 476h-4l2 33h2v-33zm11 0v31c0 7-3 9-10 7-6-2-17 2-16-10 0-11 3-21 5-32l-3-1-5 23h-3l-1-17c-1-15-1-31-4-45-2-8 0-10 6-11 8 0 16-1 19 9 1 3 5 6 8 6 7 2 10 6 12 11 4 13 11 26 6 40-1 4-4 7-6 10l-3-1-2-21-3 1zM419 364c16-2 18 0 18 17l2 7 4 7-6 3c-4-1-9-3-12-6l-5-12 8-5h-8l-20 14c-3 2-7 3-10 2-12-2-23-19-22-32l4-19 8-22c11 3 18 9 23 18v5l-7 2-20-3v3l26 15 2 6-2 2c-12 12-12 12-7 16l24-18zM485 202l24 3h17c3 0 8 0 9 2 3 6 8 15 5 19-7 12-17 22-27 34-3 4-8 4-10-1l-18-57M463 471l2 9-1 24c0 8-4 11-11 11-8-1-19 3-20-10-1-11-4-24 1-32 8-12 21-21 33-31l4 2-1 6-7 5c2 2 5 5 5 7l-5 9M478 920l-3-11-8 5-1-11-7 1c-6-12-2-25 8-34 3-2 3-9 5-13l5-10 6 8c2 6 2 13 3 19l7 24c3 13-1 19-15 22" fill="#FEFEFE"/>
    <path d="M572 387l-3 12c-1 2 0 6-2 8-1 2-5 3-7 5-1-3-3-5-3-8l4-16 18-36-3-8 6-33 3-20 2-7 3 1c2 19 6 38 6 58 0 6-8 12-12 18l-12 26M584 766l-2 11 1 10 2 7-3 36-6 10-4-2 8-47h-2l-7 29c-2 18-2 18-20 18l-16-1c1-6 1-13 10-13l5-6 9-6-1 12-3 8h4l8-33 13-34 4 1M510 465l6-27c-5 9-11 17-6 27m8 44c-9-1-13-3-10-11l6-24-4-1-8 34-4-1v-12l7-57c0-3 4-6 6-9 4 5 14 2 13 12-1 7-4 14-4 21l-1 35-1 13M486 463l7-30 6-5c1 3 3 5 3 8l-7 53v10c2 7-1 9-6 10-7 1-9-4-8-10l6-30 2-5-3-1M476 556l-12 4-20 11-2-2 9-10 54-37-1 1c3-2 6-5 10-6l11-4 2 3-7 10-44 30" fill="#FEFEFE"/>
    <path d="M561 388l-9 4-1 7c-1 13-9 18-21 13-1 0-3-3-3-5l8-28c0-2 3-4 6-4 3-1 6 6 11 2l3 8 2-1 4 5v-1M411 397c14 2 14 2 11 15h11l11-9c3 6 6 11 7 17 0 2-6 7-9 7l-24-3c-3 0-6-6-6-10-2-5-1-11-1-17M578 401l4 24h3l-1-10 4-6 4 5c1 2 1 5 4 7l-1-6 3-9c3 2 9 4 9 7 0 7 4 15-6 19-7 4-25 1-29-4-3-5 0-21 6-27M467 734l13-11 4 2-8 22c-3 8-14 11-10 22l-6 4c-3-2-8-4-9-7-1-4 2-9 2-14l14-18M557 326l-9 27 4 2 2-7 3-14 6-5 2 8-1 9c-2 4-3 9-6 11-3 3-11 5-11 4-5-7-11-14-6-24l7-17 9 6M505 522l-24 11-11 5 2-22c1-2 5-5 7-5h33l-8 11h1M530 442c9 10 10 26 5 36-3 7-4 16-6 23l-2 11-5-7 4-63h4" fill="#FEFEFE"/>
    <path d="M468 734l-14 18c-9 1-11-3-7-16h-1l16-14 16-16 4 3-9 17-5 8M628 374l-20-13-2-6c3-10 13-6 19-8 2 0 6 5 6 8l1 17-4 2M550 551l-4-3c0-2 0-5 2-6l23-14 7-4 8-1c0 3 2 8 1 9l-37 19M455 718c-17 4-18 3-24-13l40-2 2 2-19 13h1zM520 526l11-7h8l-1 9-36 21c-2 1-4-1-10-1l29-23-1 1M451 439c5-4 9-9 15-11 4-1 10 3 13 4l-43 30-2-3 18-21-1 1zM548 514l27 5 1 4-23 11c-2 0-6-3-7-5-1-4 1-9 2-15M537 613l-14 13c-1-4-4-9-3-12 7-11 15-20 29-24l-12 24v-1M572 386l12-25c12 0 5 10 5 14 1 5-5 10-8 14-5 7-8 5-9-3M605 318l11-9 8-2c0 3 1 7-1 9l-18 17-3-1 3-14M402 366l2-2c4-4 8-9 12-11 3-2 7 0 11 0l-5 9-3 2-12 5-5-3M394 317c-4-1-11-2-11-4l2-21h4l7 22-2 3M538 482c1 9 3 17 3 26l-6 4c-2-2-4-4-4-6l4-24h3M604 304l6-3 13-6-18 23-6 4-3-1 8-17M596 705l-3 25-5 5-4-2c-2-4 6-25 12-28M482 408l1-2 8-4 9-1c-1 4-1 10-3 11-6 4-13 6-15-4M563 346l11-23c3 10-3 29-12 36l1-13M463 416c-14-4-9-16-17-24l14 1 3 23M594 382l4-18c11 13 11 15 5 23h-16l7-5M542 726l9 11-3 15-14-3 10-7h-3l1-16M557 791c-10 15-14 16-23 3l23-3M451 438l-15 9 1-14 18-5a10237 10237 0 0 0-4 10" fill="#FEFEFE"/>
    <path d="M454 717c1 3 3 6 2 8l-10 11-8-10 16-9M548 762l16-11-7-4 1-3 11 8-6 6-13 7-2-3zM479 479l-2 29h-3c-4-10 0-19 1-29h4M612 336l15-8 2 1-2 9-14 3-1-5M451 559c-4-1-10 0-7-8l6-6 5 2-2 9-2 3M455 367l3 16-4 2c-2-4-5-8-5-11 0-2 4-5 6-7zM623 407l-7 5-8-10 5-4 10 9M527 427h8l7 16-3 2-12-18M563 715l10 5-8 7-6-8 4-4M581 507l14-12c3 12 1 14-14 12M468 340v19l-3 1-5-13c0-2 4-4 8-7M455 367l-1-7c0-2 2-3 3-5l4 3c1 5 1 9-1 14l-5-6v1" fill="#FEFEFE"/>
    <path d="M492 558l-50 34c15-14 28-30 50-34M570 475v33h-2l-2-33h4zM402 365c2 1 4 4 5 3l12-5-24 19c-5-4-5-4 7-17M511 465c-5-10 1-18 5-27l-5 27" fill="#231F20"/>
  </g>
</svg>
