<svg width="1000" height="1000" version="1" xmlns="http://www.w3.org/2000/svg" xmlns:xlink="http://www.w3.org/1999/xlink">
  <defs>
    <path id="a" d="M0 2h289v843H0z"/>
  </defs>
  <g fill="none" fill-rule="evenodd">
    <path d="M535 236c30 3 48 6 53 11 9 6 30 26 30 51l21 22v35l-4 27-8 25-19 17-59 9-79 1-20-1-9-9-18-8 18-37 55-107 39-36z" fill="#FFF" fill-rule="nonzero"/>
    <g transform="translate(355 77)">
      <mask id="b" fill="#fff">
        <use xlink:href="#a"/>
      </mask>
      <path d="M208 662l-11-7-13 9c8-5 18 11 24-2zm-35 76l1 2 17-3-10-15-9 9 11 3-10 4zm-69 16c10 3 16 0 18-12l-22 1v3l14 4-10 4zm13-306c-4 4-7 7-8 10l5 5 12-7-9-8zm71 265h17c-3-9-12-14-20-12l3 12zm-89 18l12 8c1-7 3-14 1-16-4-4-11-5-16-8l-4 4 10 9-3 3zM32 297l-3-3-18 11v7c1 2 6 3 7 2l14-17zm195 376l-30-4c-12-2-14-1-13 5l43 4v-5zM66 617l21-26c1-1-1-5-2-6h-7c-5 2-13 21-12 32zm21-177l2-21c0-5 0-9 2-13 2-3 6-4 9-6l-11-8c-16 9-21 18-12 25-13 21-13 21 10 23zm18 218a72 72 0 0 0-21 37c-1 3 4 11 8 13 5 2 9-2 10-9 0-4 3-7 5-13 6 18 10 1 14 2l-13-3c5-10 5-18-3-27zm166-350c-3 0-8-1-11 1-8 5-17 11-23 19-4 3-3 11-5 16 7 0 15 3 19 0 12-8 24-17 20-36zM158 440l-4-1 6-37 2-21c0-3-3-7-4-10-3 3-6 5-7 8l-3 36-1 26c-1 11 2 12 9 8l14 6 2-13c0-16-3-32 9-43l-4-13v-11c-1-3-4-5-7-7-2 3-5 6-5 8l-7 64zm-26-34h3c-2 13-4 25-4 38 0 3 4 6 6 9 2-3 6-6 6-10l5-65-2-7c-1 2-4 3-4 5l-3 20h-4v-29c-14 11-7 21-7 31l-4-4-5-10c-2 3-6 6-6 9-2 16-4 31-4 46 0 9 6 8 12 6v-21l-2-19h4l2 38h2l5-37zm52 421l10 6c0-10 14-17 8-29-2-3-2-7-3-10-1-10-4-18-16-16-3 0-7-3-10-5-5-3-10-6-14 1-3 5-14 7-7 19 4 6 5 16 5 24-2 12 6 17 13 23 1 0 5-2 6-4v-9l8 11v-11zm36-422h-1l-2-6c0-11 8-24-9-28v-1l-8-7c-2 4-4 8-4 12 0 9 3 18 2 27l-6 41c-2 12 1 15 13 15l18-1c11-1 16-6 15-18l-4-47c0-3-6-7-9-10l-3 2-2 21zM91 274h4l33-70 6-6c2-2 1-6 3-8l33-32c3-4 6-9 7-13l-3-21v-6c19-18 16-42 17-64 1-7-6-15-10-22-1-2-8-3-11-2l-41 24c-2 2-2 6-4 10l15 1-1 10h-10l2-7c-6-1-13-5-16 4-5 10-3 21 7 29-9 2-9 7-6 14 8 17 18 29 38 27 1-1 2 1 4 2-9 6-23-1-26 13l-6 28h-3l2-18-6 1 1-6v-11c-3 0-8 0-8 2-1 3-2 7-1 11l5 24h-1l-11-30c-23 11-44 20-64 31-14 8-22 21-25 39l26-6-8-10 15 8 3-2-8-17 3-1 18 43c-5 3-6 8-1 15 3 5 3 16 7 17 10 3 7 9 8 15 0 2 5 5 6 5 6-3 9-16 5-21-8-11-9-16-5-24l7 24zm49 509c6-5 14-9 16-15 7-19 12-39 17-58 1-7 1-13 3-19 2-8 1-17 3-25 2-14-3-31-5-46-1-7-4-13-6-19l-15-39h-3l-3 7v16c3 29 4 58-8 85-9 20-8 41-6 62l3 23 5 28c-13-9-21-10-29 0-6 9-11 19-14 30-3 7 7 8 9 13 4 9 7 5 11 2l2 10h3l7-12 3 9c17-7 18-10 14-25l-7-27zM43 345l5-12c-19 7-22 13-14 22l7-8-3 19c0 3 4 8 5 8 16-2 31 14 47 1 3-3 12-3 9-8-3-8-8-16-15-19-3-2-11 1-17-1l-5 14-3-16-9 12c-4-1 6-15-7-12zm43 275l-11 26c-2 3-6 7-6 11 0 6 3 11 5 16 1 3 5 4 7 6 2-3 5-5 5-8l-3-9c9 3 26-10 25-20 0-4-3-7-5-11l-10 6-10 13c4-7 7-15 13-21 5-5 7-9 2-14-2-1-8 2-12 4l5-10c1-3 0-6-1-8-1-1-6-1-7 1-11 11-19 23-17 40l3 2 17-24zM38 251l-24 10c-2 1-3 4-4 7h7l15-5-10 6c-16 7-18 11-14 29l14-3 10-6-12-11 24 1 21-4-1-3-11 1c-2-6 5-18-10-17l6-4-1-3-11 2 22-11-13-6-11 2v-11c-7 5-17 2-20 14h14l-13 17 22-5zm13 60l4-9c-11 1-18 3-20 14l17-5-16 9c-6 2-10 5-8 14l27-15-6 8 1 3h17l3-6-14-4-1-1 11-7-2-4-13 3zm34 174c3-3 6-5 8-9 3-7 0-11-8-11l7-11c0-2-1-6-3-7-1-1-6 0-6 1-2 6-7 13 2 17l-5 13c-2 4-4 8 4 8l-4 8c-3 7 0 8 5 9l-9 15c-2 5 0 7 5 7l-12 19 13-3-8 9-11 27c-2 5 0 8 5 4 1 7-13 10-5 19l18-22-1-5-6 2-6 6c8-17 16-28 22-29-1 3-3 5-2 7 3 22 10 42 21 61h8l-1 7c2 6 4 13 8 17 2 3 11 2 15 0 3-3 7-11 5-14-5-10-2-20-1-29l-2-11-9 3 5-9 6-18-3-2-8 3 23-37-3-2 10-1 1 1-2 8 3 12 8-8 14-24 3 2c-4 9-8 19-14 27-7 10-13 18-5 31 11-18 16-37 31-50l-28 53c-4 6-6 11 1 16 5-9 9-19 15-28l15-17c4 6 8 13 13 18 4 5 4 14 15 10l-9-33c11 16 17 59 11 66l-2-11-11 2 10-8h-10l4-8c-3 0-7-1-9 1l-30 12 35-19-4-7-5-9c-5-9-10-10-16-1-6 8-11 18-16 28-3 6-1 9 6 8-2 1-5 2-6 4l-4 9 9 2 6-5-4 6c-7 8-3 10 5 9 2 18 14 24 27 14 7-5 13-12 21-20l-1 8c-2 5-5 9-6 14 0 5 2 11 5 13 5 3 10 2 14-5 15-26 19-54 14-83-6-29-16-58-24-87l-11 1 2-2 6-9-3-4-10 7-2 6 8 2-19 9-1-2 6-14-2-2-20 11v-2l17-13-1-3-20-1c-1 14-2 27-19 33v-23l-2-12c-6 0-12 0-17 3l-13 10 10-13-1-3c-5 1-11 1-15 3-14 8-28 16-36 30l-14 14 6-10c5-7 2-9-6-9zm86 266l-4 13 18-2v-8h-7l15-13c-9 1-20-3-22 10zm90-512c5-6 7-10 1-16-3-4-4-11-5-16-5-26-22-40-49-40-12 0-13-1-16-11 10 2 22 3 32 7 21 8 36 23 40 47 1 8 4 14 12 18 11 6 14 19 13 30-2 19-6 37-10 56-1 6-5 11-6 17-1 4 0 7 1 11l2 12-13-13c-6 1-7 5-1 10l-14 1-8 3c-13-3-12-3-16 9l-2-10-3-1c-1 5-3 10-1 14 4 9 29 16 38 10 4-3 5-9 7-14l-2-13 3 5 7 8 5-9c0 2 2 6 1 7l-18 23c-3 2-7 3-11 3-8 1-9 5-9 13 2 12 5 26 4 38-1 15 1 29 5 43l16 60 9 33c5 29-5 54-18 79-8 15-12 31-19 47l-30 66c-3 7-3 15-3 22l5 20c3 16-2 26-17 33-13 6-24 6-34-7-1-1-7 0-9 1-15 12-23 13-38 1l-2-1c-21-15-23-21-7-44 6-8 5-13 0-20-5-11-7-22-11-34l-19-59-14-56c-2-7-3-15-2-23 1-15 2-29 6-43 6-27 14-53 11-81 0-4 0-8 2-11 2-9 5-17-9-19-1 0-3-5-3-8l10-43c2-8 1-12-8-13-5-1-11-1-16-3-7-1-15-2-14-12 0-3-3-5-4-8l-3-3c-3-19-16-31-24-47-8-17 1-33 3-50 1-7 3-15 3-23 1-26 15-45 39-56s47-24 70-37c2-1 3-5 2-7l-16-25c-2-2-4-5-4-8-1-18-5-36-2-53 4-19 17-34 36-41 7-3 15-10 24-3 3 3 7 5 11 6 19 6 30 19 30 39-1 19-4 37-6 55 0 3-2 6-4 8-13 10-13 20-2 32l3 4-10 3c12 21 1 39-9 57-10 20-23 39-34 58l-2 5-3-3c8-15 16-30 26-45 10-14 18-29 14-44l9-9c-18-2-20 0-20 9-19 6-2 19-7 28l-3-7-3-8c-3 2-7 3-8 5l-36 73c-1 2 0 6 1 8l4 12-3 1-4-13-9 12c-4 7-2 17-11 22l3 10c-10-2-10 7-11 13 0 1 4 6 6 6 8 1 10-4 10-11v-2c12 0 3-9 6-14l8 10 19-9-5-8 17 2 3-14c-1 7 8 18-8 20-2 0-4 7-5 10-4 0-10-2-13 1-3 2-3 8-3 13l2 11-9-22c-4 6-9 10-9 14 1 5 6 9 10 12 1 1 6-3 8-5l20-3 9-5 4 3 19-16c12 1 27-8 33-22l5 21c-4-1-8-4-10-3-4 2-5 6-7 9l-6-5-12 8-13 8c-1 1 1 7 1 7l13-2 1-2 41-6 5-23h3l-5 24c6-4 11-6 12-9 5-14 11-28 10-44-1-13 4-28 9-40 2-6 12-8 19-12-1 2-1 5-3 6-4 5-10 9-13 15-2 4 1 10 1 16 0 4 0 7-3 11l-6 9 3 3c9-6 21-8 26-20 0-2 3-4 4-6 0 3 2 6 1 9l-13 19c13 8 17 6 20-7l5-20v-15l-16 7c3-4 8-6 12-9l2-7-10-1 5-12-13 2-3 1z" fill="#231F20" mask="url(#b)"/>
    </g>
    <path d="M580 284c-5-3-10-8-15-8-4 0-9 4-12 8-7 7-8 15-4 23 5 10 14 11 24 6-6 8-6 8-15 5-12-3-14-12-14-22 1-9 10-22 19-23 6 0 12 5 18 8l-1 3" fill="#231F20"/>
    <path d="M445 406v2c0 7-2 12-10 12-2-1-6-5-6-7 1-6 1-15 11-13l5 6" fill="#FEFEFE"/>
    <path d="M474 372l-1 13-7-1c-2 1-3 4-4 6-2-2-5-3-6-6-2-2-3-5-2-9l5 9 16-12h-1z" fill="#231F20"/>
    <path d="M475 372l8-19 2 1-5 23-6-5h1" fill="#231F20"/>
    <path d="M609 622h-4v40h-2l-9-40-3 1 10 63c12-20 10-42 8-64m-92-17h-10l3 2-23 37 8-2 3 1-6 18-5 9-15 27h-8c-11-18-18-39-21-60-1-2 1-5 2-8-6 1-14 12-22 30v-1c-5 5-7 1-5-3l11-28 8-8-13 2 12-18c2-1 5-2 6-4l17-24v1l31-24 6-2 13-10c5-2 11-3 17-2l2 12v22c17-6 18-19 19-33l20 2 1 2-17 13v2l20-11 2 2a72388 72388 0 0 1-5 17l19-10h-1l11-1c8 30 18 58 24 87 5 29 1 57-14 84-4 6-9 8-14 5-3-2-5-9-5-13l6-15 1-7-21 19c-13 11-25 5-27-13l29-23 11-1 2 10c6-6 0-50-11-66l9 33c-11 5-11-5-15-9l-13-18c-5 5-11 10-15 17-6 8-10 18-15 28-7-6-5-11-1-17l28-52c-15 12-20 32-31 50-8-14-2-22 5-31 6-9 10-18 14-28l-3-2-14 24c-2 4-5 6-8 9l-3-13 2-8 18-23-2-2c-10 5-13 15-17 25M446 352l-7-25c-4 8-3 13 5 24 4 5 1 19-5 21-1 0-6-3-6-5-1-6 2-12-8-14-4-1-4-12-7-18-5-7-4-12 1-14l-18-44-3 1 8 17-3 3-15-9 8 10-26 6c3-18 11-31 25-38 20-12 41-21 64-31l11 30 1-1-5-24c-1-4 0-8 1-11l8-2v12l-1 5 6-1-2 18 3 1 6-28c3-15 17-8 26-14l-4-2c-20 3-30-10-38-26-3-8-3-12 6-14-10-8-12-20-7-30 3-8 10-5 16-4l-2 8h10l1-11-15-1c2-4 2-8 4-9 14-9 27-17 41-24 3-2 10-1 11 1 4 7 11 15 10 23-1 22 2 45-17 63v7l3 20c-1 5-4 10-7 13l-33 32c-2 2-1 6-3 9-2 2-5 3-6 6l-33 69-4 1M575 482l2-21 3-2c3 4 9 7 9 11l4 46c1 12-4 18-15 19h-18c-12 1-15-2-13-15s5-27 6-41c1-9-2-18-2-27 0-4 2-8 4-11l8 6v1c17 5 9 18 9 28l2 7 1-1M539 905v10l-8-11v10c-1 2-5 4-6 3-7-6-15-11-13-23 0-8-1-17-5-24-7-11 4-13 7-19 4-6 9-3 14 0 3 2 7 4 10 4 12-1 15 6 16 16 1 3 1 7 3 10 6 12-8 19-8 29l-10-5M495 860l7 27c4 15 3 18-14 25l-3-9-7 13h-3l-2-11c-4 3-7 7-11-2-2-4-12-6-9-13 3-10 8-21 14-29 8-11 16-10 29 0l-1-1M487 484l-5 37h-2l-2-39-4 1 2 18v21c-6 3-12 3-12-5 0-16 2-31 4-46 0-4 4-6 6-10l5 10 4 5c0-10-7-21 7-31v28h4l3-20 4-4 2 6-5 66c0 3-4 6-6 9-2-3-6-6-6-9 0-12 2-25 4-37h-3M513 518l7-64c0-3 3-6 5-9l7 7v11l4 13c-12 12-9 28-9 43l-2 13-14-6c-7 4-10 3-9-7l1-27 3-35c1-3 4-6 7-9 1 4 4 7 4 10l-2 22-6 37 4 1M616 316h3l13-2-5 11 10 1-2 7c-4 3-9 5-12 9l16-7v15l-5 21c-3 12-7 14-20 6l13-19c1-2-1-6-1-8-1 2-4 3-4 5-5 12-17 14-26 20l-3-2 6-10c3-3 3-6 3-11 0-6-3-11-1-16 3-5 9-10 13-15 2-1 2-3 3-5h-1M398 422c13-3 3 11 7 13l9-13 3 16 5-13c6 1 14-2 17 0 7 4 12 12 15 19 3 6-6 5-9 8-16 13-31-2-47-1-1 0-5-5-5-7l3-20 2-2" fill="#FEFEFE"/>
    <path d="M472 697l15-27 9-3 2 11c-1 10-4 19 1 29 2 3-2 11-5 14-4 2-13 3-15 1-4-5-6-12-8-18l1-7M616 428l2 12c-2 5-3 12-7 15-9 6-34-2-38-11-2-4 0-9 1-13h3l2 10c4-12 3-12 16-9 2 1 5-2 8-2l14-2h-1M398 334c15-2 8 11 10 17l11-2 1 4-21 3c-7 1-14 0-24-1l12 11c-3 2-6 5-10 6l-14 4c-4-18-2-23 14-29l10-6 11-7M626 385c4 20-8 29-20 36-4 3-12 1-19 1 2-6 1-13 5-17 6-7 15-13 23-19 3-2 8-1 11-1M496 550l-6 2-31 24v-1c-15 4-16 19-23 28-5 0-7-3-5-8l9-14 14-14c8-14 22-22 36-30 4-2 10-2 15-3l1 3-10 13M460 735c8 9 8 17 3 27l13 3c-4-1-8 16-14-2-2 6-5 10-5 14-1 6-5 10-10 8-4-2-9-9-8-13 4-13 9-26 21-37M541 676c-7 1-9-2-6-8l16-28c6-8 11-7 16 1l5 9 4 7-35 20v-1M438 739l3 9c0 3-3 6-5 8-2-2-6-3-7-5-2-5-5-11-5-16s4-9 6-12l11-26v-1c4-1 10-5 12-3 5 4 3 8-2 13-6 6-9 14-13 22v11M442 518c-23-2-23-2-10-24-9-7-4-16 12-24l11 8c-3 1-7 3-9 6s-2 8-2 12l-2 22" fill="#FEFEFE"/>
    <path d="M438 739v-11l10-13c3-3 7-4 10-6 2 3 5 7 5 10 1 10-16 24-25 20M441 696v1l-17 25-3-3c-2-17 6-29 17-40 1-1 6-2 7-1 1 2 2 6 1 8l-5 10M546 687l-6 4-9-1 4-10c1-2 4-2 6-4v1l30-13 9-1-4 8-30 16" fill="#FEFEFE"/>
    <path d="M546 687l30-16h10l-10 8-29 23c-8 0-12-2-5-10l4-5M390 314c4-1 8-3 11-2 4 0 8 3 13 5l-22 12 1-1-22 5 13-17 6-2M421 694c-1-10 7-30 12-32h7c1 2 3 6 2 7l-21 25M406 389l13-4 2 4-11 8v-1l-27 16c-2-10 2-12 8-15l16-9-1 1zM466 428c-2 1-7 5-8 4-4-3-9-7-10-11 0-4 5-9 9-15l9 22" fill="#FEFEFE"/>
    <path d="M398 334l-11 7-15 4h-7c1-2 2-5 4-6l24-11-1 1 11-2 1 2-6 5M582 750v6l-43-4c-1-7 1-7 13-5 9 2 19 2 30 3M387 374l-14 18c-1 1-6-1-7-3v-7l18-11 3 3M398 422l-2 2-7 8c-8-9-5-15 14-22l-5 12M454 808l3-3-10-8 4-4c5 2 12 4 16 8 2 2 0 8-1 15l-12-8M439 564c-8-1-6-5-4-9l5-13c8 1 11 5 8 12l-8 8-1 2M631 431l-5 9-7-8-3-4h1c-6-5-5-8 1-10a26732 26732 0 0 0 13 13M390 314l-6 2h-14c3-12 13-8 20-14v12zM543 790l-3-11c8-3 17 2 20 11h-17zM472 525l9 9c-4 2-7 5-12 6-1 0-6-4-5-5 1-3 4-6 8-10M459 831l10-4-14-3v-3l22-2c-2 12-8 15-18 12M423 659l6-7 6-1 1 4-18 22c-8-9 6-12 5-19v1M410 397h1l14 4-3 6-17 1-1-4 6-8v1M407 388l-17 6c2-11 9-14 20-15l-4 10 1-1M528 815l10-4-11-2 9-10 10 16-17 2-1-2M533 831h7v8l-18 2 4-12 7 2M440 542c-9-4-4-11-2-17h6c2 1 3 5 3 6l-7 11" fill="#FEFEFE"/>
    <path d="M439 564l1-2c8 0 11 2 6 10l-6 9c-5-1-8-3-5-9l4-8M563 740c-6 13-16-4-24 2l13-10 11 8M587 556l-8-2 2-5 10-7 3 3-6 9-2 2h1M533 831l-7-2c2-14 13-10 22-10l-15 12" fill="#FEFEFE"/>
    <path d="M609 622c2 22 4 44-8 64l-10-63 3-1 9 40h2v-40h4M436 603c7-9 8-24 23-28l-17 24c-1 2-4 3-6 4M459 576l31-24-31 24M517 605c4-10 7-20 17-25l2 2-18 23h-1" fill="#231F20"/>
  </g>
</svg>
