<svg width="1000" height="1000" version="1" xmlns="http://www.w3.org/2000/svg">
  <g fill="none" fill-rule="evenodd">
    <path d="M500 91l-53 36-7 24v32l19 19 11 31-44 17-60 34-13 43-17 63 10 51c0 3 7 17 20 41l32 32-11 9-34 32-102 79-28 29-26 101-8 27-6 25 6 31-16 38 10 19 14 16 26-2 10-2 5-12-15-62 51-86 18-41 54-12 59-60 65-9h38l106 44 58 8 54 17 21 61 7 35v78l12 16h19l39-25v-15l-30-44 16-16-16-70v-71l-19-18-171-83-11-16-23-16 54 4 11-18v-30l29-73-29-95-21-23-65-30-22-35 18-36 4-20v-43l-49-29z" fill="#FFF" fill-rule="nonzero"/>
    <path d="M357 390h4l4-25c-17 7-7 17-8 25M192 794l-4 2c1 3 1 9 3 10l19-2-18-10m591 81h-5l-4 12 11 2-2-14M619 437v3l15 3 10-2v-5c-3-2-7-5-10-4-5 0-10 3-15 5m36-48l-14 18-1 8c3 0 7 2 9 1 7-3 11-17 6-27M541 637v6c6 3 12 7 19 9 1 0 6-4 6-6 0-3-3-8-5-9h-20m-100-52l3 1 18-33-3-4c-5 3-12 4-13 7-3 10-3 20-5 29m256 52l20-29c-14-5-20 4-25 12-1 3 2 9 5 17M542 462c-10 1-21 10-19 18 1 3 6 7 9 7 10-1 13-9 10-25m27 174c0 20 14 33 27 27-9-9-9-26-27-27m180-16c-16-3-40 26-36 42l36-42m-44 48l2-4c-13-8-4-29-25-32 2 12 5 24 10 35 1 2 9 1 13 1m0-14l25-32v-7c-1-2-4-3-6-2-13 2-26 30-19 41m-90 18l-10-28c-4-11-8-13-19-6 4 16 20 35 29 34m2-154l6-3c9-9 10-19 2-29l-10-7c-1 3-5 7-4 11l6 28M378 381v4c2 4 4 9 8 10 3 1 11-2 11-4 1-4-1-10-4-12-6-4-13-7-21-8-2 0-6 5-7 9l4 8 9-7m261 248c-11 4-14 10-10 21 7 22 13 27 22 23l-12-44m-6 45l-10-36c-1-3-6-5-9-8-3 4-8 8-7 12 2 9 6 18 10 26 4 7 10 10 16 6m-223-45l4-18c-15 4-15 16-18 26l5 5c9-2 18-3 26-7 4-1 4-9 6-14l-14-3c-3 1-5 7-9 11m201-186v1h-7l-13 11c5 2 9 5 14 6h27c3-1 6-5 9-7-2-3-4-7-7-8-7-2-15-2-23-3m187 316c-11 6-19 10-27 16-4 4-7 9-9 14-2 6-1 13 8 13 8 0 17-1 24-3 4-2 10-8 10-11-1-11-4-21-6-29M447 508c-12 1-22 3-32 2-13-1-26 7-29 20-2 8 2 11 9 11h29c4 0 10-1 12-4l11-29m121-11l6-15c1-3 0-6-2-8-1-2-4-2-6-2-10 4-15 27-7 32 12 8 23 18 39 15 10-1 14-7 10-19l-9 7 2-20-3-1a77243 77243 0 0 1-15 15l10-25c-19 0-13 17-25 21m19-149l-8-28c-1-3-5-6-8-7-10-1-23 9-25 18-1 12-2 24 0 35 0 4 7 10 11 10 17 2 29-11 30-28m-57-121l-4-2c-8 5-15 11-24 13-8 1-17-2-26-4-1 10-4 20-2 29 3 12 11 23 16 34 4 10 8 7 12 0l24-45c3-8 3-17 4-25M218 894h4v8l4 10c3-3 8-6 8-9-3-17-5-34-10-50-3-11-23-17-28-9l-22 43h4l9 18 10-9 13 22 5-12 3-12m512-222c-11 10-28-2-37 15 12 3 23 7 34 8 7 1 17-2 22-7 7-8 16-8 25-9l3-1-2-2h-10l20-32c-10-13-18-14-26-2-9 12-16 26-23 38 0-2-1-7 1-11l20-32 4-10c-4 1-8 0-11 2l-24 23c-10 11-9 14 4 20m42 192c7 4 20 1 19 17l5 4c2-3 6-6 5-8-3-9 2-13 9-18l9 11c7-8 3-14-1-21l-21-29c-3-4-7-8-10-8-10-3-20-3-29-4 3 28-7 55 4 80h6l4-24M448 431h2l9-8 48-67c25-32 31-68 27-109l-4 6c-12 23-22 47-35 69-13 21-29 40-41 61-6 9-18 18-8 31l-8-5c-2 7-2 14-5 19s-9 9-13 14c-2 2-9 4-9 6 1 5 3 10 7 12 2 1 8-2 11-4l4-5 15-20m3-257h2l3 10c4 16 6 33 23 43 11 7 25 8 35 0 15-13 26-31 27-49 2-22 19-50-12-68v-1c-5-5-10-6-17-1-6 4-15 6-22 9l-37 15c-3 2-7 8-7 12l-3 27c0 4 3 9 4 13l3-1 1-9m-57 160l4 6c-2 11 2 14 13 11 5-1 11 2 17 4l-23 9-9 9h13c13-4 25-10 38-15l1 5-18 5c-21 6-21 6-23 25l-1 2c4 7-5 19 9 23-11 7-8 13 3 19l25-46-4-3-22 12-2-3 38-21-3-5-25 9c7-5 16-8 24-12 6-3 12-7 16-12 9-11 17-23 24-36 2-4 1-10 0-14l-23-52c-2-5-5-8-8-12l-5 3c1 21 17 38 21 58l-4-4-20-43c-1-3-7-7-9-6l-31 11c-25 10-46 25-51 53-1 8 1 17 1 24l-7 3 9 12c10-9 2-23 15-30-3 9-6 17-7 25-1 4 0 8 1 12l7-5c3 4 5 12 8 13 10 0 6-9 7-14l1-20m-1 230l-4 2-4-10c-1-4-2-9-5-11-3-1-9 1-12 3-32 24-64 50-97 73-26 17-45 37-50 68l-9 43 7-1c17-6 24-21 32-35 4-9 8-13 17-4 9 8 27 10 33 4l29-31c2-3 4-9 3-12-2-2-8-3-12-3l-21-1 15-36 3 1-3 9-1 11c0 1 6 2 7 1l4-10 6-16 3 1c-6 20-5 20 7 26s8-8 14-10l-2 14 26 2c1 0 5 4 7 3 3-1 5-6 7-9 4-8 4-19 10-24 18-12 16-32 21-49 2-7-4-15-14-14-9 1-7 8-6 14l-1 5h-4v-11l-1-10-6 1-2 10c-1 2 2 4 3 6m63-113l3-16-5-2-10 18 3 3 9-3c-3 6-8 11-10 17-2 3 0 8 0 13 3-2 8-3 10-6l10-20 15-29 3 2-26 52c15 6 28-1 40-20l7 11 14-16c9 5 13-8 20-9 11-3 11-12 16-19s8-16 12-24l5 2c-4 8-9 17-11 25-3 9-2 19-2 28h-3l-1-15c-10 5-12 18-6 32 4-3 10-4 13-8 5-7 15-11 14-23-1-7 3-15 5-22l2 1-5 27c11 0 20-8 20-21 1-11 1-23-1-35-1-7-5-15-10-20-2-2-10 3-15 4-18 6-30 4-31-9-2-14 0-29 2-43 1-5 6-10 10-15 6-8 26-7 29 3 4 14 5 29 8 43l5 12 5-1v-16h4l-2 32c18-9 4-26 12-37 0 15 9 29-1 44-4 5-2 15-3 22l4 2c11-8 22-16 31-25 5-6 8-16 7-23-5-19-13-37-21-55-2-5-7-8-10-11l-11 11-8 12-3-2 15-27-4-3-16 20c1-7 3-12 7-17 5-7 5-12-4-15l-44-22-11-4c-1 4-3 8-2 13 1 27-2 53-18 76l-47 65c-4 5-7 12-10 18l-9 25m-61 26l9-14c3-5 2-11-5-10-6 1-13 5-18 9-2 2-2 11-1 11l15 3c-9 6-7 15-4 23 1 3 5 5 8 5 9 2 18 2 27 2 13 1 22-7 18-16-2-4-8-6-12-9v-11l-7-1 2 11-5 9c-2-6-2-10-2-14l-4-9-6 8-2 18h-4l-1-15h-8m-69 212l20-20c3-3 5-7 6-11 0-2-5-6-6-6l-10 8-22 28-7 6 3 4 16-9c8 4 14 2 26-6 5-4 11-6 17-9l11-7c-2-3-4-8-7-8-5-2-12-3-16 0-11 9-21 20-31 30m22-288c-7 18-6 21 12 22 4 0 9-6 14-9 6-5 7-11 1-16-2-2-9 2-11 2l-14-1c7-13-6-31 13-41-5-2-10-3-12-1-7 5-13 37-9 44h6M213 759c5-13 5-14-7-16l-8 27 3 1 10-8-4 13c6-2 10-3 13-6l21-23 8 4-14 12 19 12-6-12 27-29-27-3c-3-1-7-3-8-2l-19 23-8 7m460-97l11 8c0-14-3-25-7-36-1-3-8-4-13-4 0 0-3 7-2 9l11 23c-12-3-12-15-16-24l-6-9c-2 4-5 8-4 12 1 8 3 16 7 23 1 4 7 7 11 7 3 0 5-6 8-9M462 538c7 5 12 6 14-5 1-8 6-15 10-22-3 7-6 13-7 20-1 4 2 8 3 12l12-4c13 15 27-3 43-2-21-4-18-24-27-40l-15 34c-1-5 1-9 2-14l3-17-15 12-2-9-6 6-15 30 14-39-2-2c-4 2-10 3-12 6-4 10-8 20-10 31-1 6 4 10 10 3m11 26l-22 53 22-53zm19 44l-3 12c11 2 21 6 30 6l29 5c10 2 18-1 21-13 3-11 8-20 13-30 1-2 4-3 7-3l-16 30c-1 4 1 9 2 14l9-11c6-11 12-22 20-32-3 15-18 24-17 39l3 2 20-32 3 2-16 24 3 4 13-7c5 8 12 9 19 3 5-5 8-12 12-18l3 2-10 18h38c15 2 16-14 28-20l-19-12-67-35c-13-7-15 4-22 11l5-24 22 9 51 25 31 17 69 32c22 11 26 31 25 51-1 33-2 65 11 97 4 9 10 23-7 29-1 1-2 8-1 11 7 11 13 22 21 32 10 11 10 23-2 32-10 7-20 14-30 19-18 9-36-5-37-24l-3-9c-1-4-3-8-2-12 0-14 3-28 2-42-1-11-6-22-10-32-7-18-18-35-21-54-4-19-15-22-30-24l-6-2c-13-13-31-10-46-9-24 3-42-10-62-19l-23-10c-9-5-18-13-28-15-19-5-37-15-56-2-17-5-30 7-45 10-18 4-30 16-43 28-17 15-34 31-60 31-10 0-17 4-22 15-7 14-19 27-26 42-9 19-16 39-24 58-4 9-10 17-15 26-1 2-3 5-2 7l8 37c3 14-3 20-16 23-11 2-21 6-32-1-22-13-27-28-14-50l8-14c3-5 4-9-2-14-4-4-5-13-4-19l11-46c10-37 19-76 32-113 4-12 14-25 25-33 31-24 64-45 95-68 16-13 30-29 44-45 5-5 3-11-3-16-26-19-47-42-48-77l-2-42c0-8 4-15 6-23 4-14 11-29 13-43 4-32 24-49 50-60 18-8 36-13 54-20 10-4 11-9 5-18l-16-19-4-7c-4-31-15-63 11-89 10-10 22-22 39-25 20-4 30 11 43 21l17 16c2 1 4 3 4 5 1 32 0 63-21 90-3 3-4 11-2 15 6 8 12 18 21 24l65 37c15 9 24 24 29 40 7 22 14 45 19 68 1 9-2 20-5 29l-26 61c-1 3 0 7 1 10 6 11-2 17-7 25-4 6-10 5-18 6-21 2-43-9-64 2a18685 18685 0 0 1 20-13l-18 2 5-8-9-2-5 1 8-6c1-2 3-5 2-7l-6-5c-5 3-11 6-12 10-3 8 4 7 9 7-6 9-3 17 7 21l-10 13 13 1c5 6 16 7 19 2 1-1 2-4 1-5l-5-2-15 6 17-8 25-1-6 16-7 19-5-15-8 10c0-13-10-14-17-13-4 0-8 9-9 15-1 8 1 16 2 27l14-11 1 1-23 33-12-2c-2-8-8-17-6-23 2-8 6-15 0-26l-26 45 23-44 4-14h-14c-4 1-6 6-9 9l-3-11-13 6c-4-1-11-2-13 0l-18 30c-2 5-6 9-9 13l-4-1 4 18-3 13h25c2 0 4-6 5-9 4-23 13-43 30-60l-4 9c-7 14-15 28-21 43-1 3 1 11 3 12 5 2 11 1 13-7 0-3 3-5 5-8zm60 11l20-38 3 2-20 37-3-1z" fill="#231F20"/>
    <path d="M466 138l27 2-3 12-24 2v-3l17-6-17-3v-4M515 142l23 3c-3 10-10 12-18 10-3-1-5-6-8-9l3-4" fill="#231F20"/>
  </g>
</svg>
