<svg viewbox="O O 1000 1000" version="1" xmlns="http://www.w3.org/2000/svg" height="1000" width="1000">
  <defs>
    <linearGradient x1="50%" y1="0%" x2="50%" y2="100%" id="a">
      <stop stop-color="#FEFEFC" offset="0%" />
      <stop stop-color="#FEFF00" offset="100%" />
    </linearGradient>
    <linearGradient x1="50%" y1="100%" x2="50%" y2="0%" id="b">
      <stop stop-color="red" offset="0%" />
      <stop stop-color="#D8D8D8" offset="100%" />
    </linearGradient>
    <linearGradient x1="50%" y1="0%" x2="50%" y2="100%" id="c">
      <stop stop-color="#2500FF" offset="0%" />
      <stop stop-color="#EFEEFD" offset="100%" />
    </linearGradient>
  </defs>
  <g fill="none" fill-rule="evenodd">
    <path d="M711 640V0H0v640c0 218 159 360 355 360 197 0 356-142 356-360z" stroke="#1C00FF" stroke-width="3" fill="url(#a)"
      fill-rule="nonzero" transform="translate(145)" />
    <g transform="translate(253 422)">
      <circle stroke="#E2E2E2" stroke-width="3" fill="#FFF" fill-rule="nonzero" cx="247" cy="247" r="247" />
      <path d="M346 350c0-54-44-98-99-98a108 108 0 0 1-107-114v-2a112 112 0 0 1 2-11v-1l1-6v-1l2-5 1-2a114 114 0 0 1 3-10l1-1 3-6 3-5 1-1a106 106 0 0 1 6-9l1-1 4-5 4-4 1-1a115 115 0 0 1 8-7l2-1 4-4h1a202 202 0 0 0 59 394c55 0 99-45 99-99z"
        fill="url(#b)" />
      <path d="M247 46a98 98 0 0 0 0 197 108 108 0 0 1 108 114v2a110 110 0 0 1-2 10v2l-2 6-1 6-1 2-1 4-1 2-2 4v1l-3 6-3 5-1 1a113 113 0 0 1-6 9l-1 1-4 5h-1l-3 4-2 1a108 108 0 0 1-8 7l-1 1-5 3v1a202 202 0 0 0-60-394z"
        fill="url(#c)" />
    </g>
    <path d="M433 560c-6 0-7-4-4-14l4-5h19c8 0 14-1 18-4 7-5 21-12 21-16s7-9 14 0c5 6 18 8 38 6 6 3 9 6 9 10 0 7 4 16 9 16 6 0 14 6 0 10s-35 23-35 35c0 11-9 10 0 36s53 86 49 96c-3 10-21 44-32 59-10-2-18-2-24 0-1 5-4 8-8 8-6 0 6 25 0 25s-20-6-20 0c0 5-1 25-9 25s-13-33-19-38c-7-6-23 5-26 0-4-6-7-12-4-16 4-4 41-22 49-18 9 4 12 4 12 0s-6-17-6-23c0-5 15-7 23-3 6 2 8-1 8-9 3-24 3-38 0-43-4-7-24-56-37-63-2-7 0-14 6-21 4-3 5-6 3-8-3-4-9-20-21-25-11 7-21 0-21 0s-6-20-16-20z"
      fill="#FEFF00" fill-rule="nonzero" />
    <g transform="translate(183 244)" fill="#2602FF"><text font-family="TiffanyHeavy, Tiffany Heavy" font-size="94" font-weight="600" letter-spacing="-9">
      <tspan x="0" y="102">Viêt</tspan>
    </text><text font-family="TiffanyHeavy, Tiffany Heavy" font-size="94" font-weight="600" letter-spacing="-9">
        <tspan x="237" y="102">Vo</tspan>
      </text>
      <path d="M381 33c-3 11-15 17-27 11-9-4-10-4-16-1 1-12 12-18 23-14l8 4h12" />
      <circle fill-rule="nonzero" cx="166" cy="124" r="12" />
      <circle fill-rule="nonzero" cx="524" cy="124" r="12" /><text font-family="TiffanyHeavy, Tiffany Heavy" font-size="94" font-weight="600" letter-spacing="-3">
        <tspan x="394" y="102">Da</tspan>
        <tspan x="559" y="102">o</tspan>
      </text></g><text font-family="Reporter-Two" font-size="223" fill="#FF0101" transform="translate(145)">
      <tspan x="35" y="195">Vovinam</tspan>
    </text>
  </g>
</svg>