<svg version="1" id="Calque_1" xmlns="http://www.w3.org/2000/svg" viewBox="0 0 1000 1000">
  <style>
    .st5{enable-background:new}.st6{fill:#2602ff}.st11{fill:#ff0101}
  </style>
  <g id="Page-1">
    <g id="LogoVovinam" transform="translate(145)">
      <linearGradient id="Forme_1_" gradientUnits="userSpaceOnUse" x1="57" y1="920" x2="57" y2="919" gradientTransform="matrix(710.8014 0 0 -1000 -40314 919968)">
        <stop offset="0" stop-color="#fefefc"/>
        <stop offset="1" stop-color="#feff00"/>
      </linearGradient>
      <path id="Forme" d="M711 640V0H0v640c0 218 159 360 355 360s356-142 356-360z" fill="url(#Forme_1_)" stroke="#1c00ff" stroke-width="3"/>
      <g id="AmDuong" transform="translate(108 422)">
        <circle id="Oval" cx="247" cy="247" r="247" fill="#fff" stroke="#e2e2e2" stroke-width="3"/>
        <linearGradient id="Path_1_" gradientUnits="userSpaceOnUse" x1="-51" y1="497" x2="-51" y2="498" gradientTransform="matrix(299.5356 0 0 -393.3392 15529 196129)">
          <stop offset="0" stop-color="red"/>
          <stop offset="1" stop-color="#d8d8d8"/>
        </linearGradient>
        <path id="Path" d="M346 350c0-54-44-98-99-98a108 108 0 0 1-107-114v-2l1-4v-2l1-5v-1l1-6v-1l2-5v-2l2-4 1-2 1-4 1-1 3-6 3-5 1-1 2-4 1-2 3-3 1-1 4-5 4-4 1-2 3-2 2-2 3-2 1-1 5-4a202 202 0 0 0 60 393c55 1 99-43 99-98z" fill-rule="evenodd" clip-rule="evenodd" fill="url(#Path_1_)"/>
        <linearGradient id="SVGID_1_" gradientUnits="userSpaceOnUse" x1="-51" y1="498" x2="-51" y2="497" gradientTransform="matrix(299.5357 0 0 -393.3533 15632 196127)">
          <stop offset="0" stop-color="#2500ff"/>
          <stop offset="1" stop-color="#efeefd"/>
        </linearGradient>
        <path d="M247 46a98 98 0 0 0 0 197 108 108 0 0 1 108 114v2l-1 4v2l-1 4v2l-1 6-2 6-1 2-1 4-1 2-2 3v2l-3 5v1l-3 4-1 2-2 3-2 2-2 4-1 1-4 4-1 1-3 4-2 1-3 3-1 1-3 3-2 1-4 3h-1a202 202 0 0 0-60-393z" fill-rule="evenodd" clip-rule="evenodd" fill="url(#SVGID_1_)"/>
      </g>
      <path id="Vietnam" d="M288 560c-6 0-7-4-4-13l5-6h19c7 0 13-1 17-4 7-5 21-12 21-16s7-9 14 0c5 6 18 8 38 7 6 2 9 5 9 9 0 7 4 16 9 16 6 0 14 6 0 10s-35 23-35 35c0 11-9 10 0 36s53 86 49 96c-3 10-21 44-32 59-10-2-18-2-24 0-1 5-4 8-8 8-6 0 6 25 0 25s-20-6-20 0c0 5-1 25-9 25s-13-32-20-38c-6-6-22 6-25 0-4-6-7-11-4-16 4-4 40-22 49-18s12 4 12 0-6-17-6-22 15-8 23-4c5 2 8-1 8-9 3-24 3-38 0-43-4-7-24-56-37-63-2-7 0-14 6-21 4-3 5-6 3-8-3-4-9-20-21-24-11 6-21 0-21 0s-6-21-16-21z" fill="#feff00"/>
      <g id="VietVoDao" transform="translate(38 244)">
        <g class="st5">
          <path class="st6" d="M93 31l-2 1-2 1c-4 2-9 6-13 13l-6 14-8 25 1 1 1 1 2 1 4 1v1a587 587 0 0 0-25 10l-5 4-2 2-2-3-2-6-20-56-1-4-4-5H6l-2-1 1-1h48l1 1-3 1-4 2-2 5v2l5 14 10 28 6-22a34 34 0 0 0 2-12l-1-9c-1-3-2-5-4-6l-4-2-2-1v-1h35l1 1zM134 101l-2 1H95h-2v-1l2-1 4-1 2-3V68v-2l-2-2-3-2-3-1 1-1h2a64 64 0 0 0 13-2 140 140 0 0 0 17-3v41l2 2 3 1 3 2zm-7-67l1 5c0 4-2 8-6 11l-7 2-9-2a10 10 0 0 1-4-9c0-3 0-5 2-8l6-4 6-2 7 2 4 5zM194 83l1 1-4 7c-3 3-6 6-11 8a37 37 0 0 1-37 0c-6-5-10-11-10-18 0-8 4-14 11-19 6-4 14-6 23-6l16 2c4 2 7 5 9 9l1 2-1 1v1l-2 1-30 8 1 2c1 4 3 6 6 8l10 2c4 0 7-1 10-3l7-6zm-9-35l1 1-1 1h-1l-19-10-18 10h-2v-1l1-1 14-19h10l15 19zm-14 20l-1-7c-1-2-3-4-5-4s-4 2-5 5l-2 8 1 4v3l6-1 2-1a5 5 0 0 0 3-3l1-4zM246 92c-2 4-4 7-8 9s-8 2-13 2l-16-2c-5-2-8-6-8-11V59h-7-1l-1-1 3-1 10-2 7-5c4-4 6-8 7-11l1-4 1-1h5v23h15l1 1-2 1h-13v29c0 7 2 10 7 10h1c3 0 5-1 7-4l3-7 1 2v3z"/>
        </g>
        <g class="st5">
          <path class="st6" d="M329 31l-1 1-2 1c-5 2-9 6-13 13l-6 14-9 25 2 1 1 1 1 1 5 1v1a587 587 0 0 0-25 10l-5 4-2 2-2-3-2-6-20-56-1-4-5-4-2-1-2-1 1-1h47l2 1-3 1-4 2c-2 1-2 3-2 5v2l4 15 10 27 7-22a34 34 0 0 0 1-12l-1-9c0-3-2-5-3-6l-4-2-2-1v-1h34l1 1zM395 78c0 8-4 14-11 19-7 4-14 6-23 6s-16-2-23-6-11-10-11-18c0-7 4-13 11-18 7-4 14-6 23-6s16 2 23 6 11 10 11 17zm-27 4v-6l-1-12c-1-5-3-7-6-7s-5 2-6 7l-1 12v6l1 12c1 5 3 7 6 7s5-2 6-7l1-12z"/>
        </g>
        <path id="Fill-1" d="M381 33c-4 11-15 17-27 11-9-4-10-4-16-1 1-12 12-18 23-14l8 4h12" fill-rule="evenodd" clip-rule="evenodd" fill="#2602ff"/>
        <circle class="st6" cx="166" cy="124" r="12"/>
        <circle class="st6" cx="524" cy="124" r="12"/>
        <g class="st5">
          <path class="st6" d="M486 67c0 10-4 19-12 26-8 6-17 9-28 9h-46v-1l3-2 4-1 1-4 1-5V43v-2-2l-1-3-1-3-3-1-4-1v-1h48c11 0 20 3 27 10s11 16 11 27zm-33 9V50l-1-11c-1-4-3-7-6-7h-1l-4 2c-2 2-2 4-2 8v50l1 6 5 2c3 0 6-2 7-6l1-13v-5zM559 91v1c0 2-1 5-5 7-4 3-8 5-13 5s-9-1-11-3c-3-1-5-3-6-6l-7 6c-3 2-7 2-11 2s-7 0-10-2-5-4-6-7v-4c0-5 3-9 10-11 5-2 12-3 19-3h4V63l-1-4-4-2-4 2 2 3 2 4c0 3-2 5-4 7-3 2-6 2-9 2s-6 0-8-2-4-4-4-7c0-4 3-7 10-9l17-2 19 2c6 2 9 6 9 11v21l1 4 3 2c2 0 4-1 5-3l2-1zm-36-6v-8l-3 1-2 1-2 3-1 3v3l1 5c1 2 2 2 3 2 2 0 3 0 3-2l1-8zM630 78c0 8-3 14-10 19-7 4-14 6-23 6s-17-2-23-6c-7-4-11-10-11-18 0-7 4-13 11-18 6-4 14-6 23-6 8 0 16 2 22 6 8 4 11 10 11 17zm-27 4v-6l-1-12c0-5-2-7-5-7s-5 2-6 7l-1 12v6l1 12c1 5 3 7 6 7s4-2 5-7l1-12z"/>
        </g>
        <text transform="translate(559 102)" class="st6" letter-spacing="-2" font-size="94" font-family="TiffanyHeavy">
          
        </text>
      </g>
      <g class="st5">
        <path class="st11" d="M88 25l4-3 2-2 3-1h4l3 1 1 3v6h2l1 1-1 1v3h4v2l-1 3-1 6-5 16-6 25-1 7-2 7-5 32-3 22v6l1 8c1 3 2 4 4 4 3 0 5-1 7-4a77 77 0 0 0 6-10l2-4 2-4a145 145 0 0 0 9-28l3-9 4-28 1-13 1-11 1-4 2-1 4 2c2 1 2 3 2 6v4l1 3h1l1-1v-1l1-2h2l1 1 1 3v1h1l1 1v1l1 2v9h2l1-2 1-1v-1l2 1v14l-3 12c-2 9-4 18-8 27l-13 31c-5 10-11 18-17 24l-1 2-2 1-2 3-4 4-5 5-6 2c-3 0-5 0-7-2l-6-3-1-1-2-1c-7-6-11-12-12-20a142 142 0 0 1-1-47l3-21 1-6 2-6 2-16 3-15v-1l-1-1h-1l-3 1-4 4-2 2-2 1-3 2-2 1-2-1v-2l1-1v-1l1-1-1-1-1-1h-1l-1 1-1 1-1 1-2-1v-2l1-1v-1l1-1-1-1h-3l-1 1v1l-2 1-1 1h-1v-2l1-1 1-2 45-40zM230 136l-2 8c-2 7-5 13-9 20a75 75 0 0 1-22 24l-8 3h-4l-2-1h-2v1l1 1h2l1 1h1l-3 1h-7l-5-1-5-3-3-3-3-3-2-3-2-3-2-6-1-9c0-15 3-28 10-39s16-21 28-29h2l2 1 3 1h2l-1-1-1-1-2-1-1-1 2-1 2-2 3-1 3-1 9 3 7 7 2 3 2 2 2 3 1 3 2 6v4l1 9-1 8zm-24-10c0-2-1-3-3-5v-1h-1l-1-2-1-1-3-1-1-1c-4 0-6 2-8 5l-7 13-2 9v15l3 9c2 3 4 4 8 4s7-2 9-6c3-4 5-9 6-14l1-9 1-8-1-7zM236 157v-9l3-22a193 193 0 0 1 9-31l3-5 3 1v9l1-1 1-1 1-1v-2l2-1h1v6l-1 2v1l1 1v1l1-1v-3l1-2 1-1 1 1 1 1v2h2v-2l1-1h2l2 1 1 2v4l-1 3-3 7-3 10-1 4-1 5-3 12-1 10v1l1 5 4 3c5 0 8-5 12-15l9-32 4-21 3-16v-4l2-3 2-1 3 1v11l1 1 1-1h1v-1l1-2h4l2 1v13l1 1 1-1 1-2v-1l1-1h1v2c0 16-3 31-9 46a145 145 0 0 1-28 43l-7 6-11 5-7-2-5-4-1-1-1-1-3-3-2-3-2-3-2-3-1-4v-14zM324 117l1-4 2-5 1-1 1-5 2-4v-2l1-1 1-1h1l2 1 1 2v3h-1v5h2v-2l1-2 2-2c0-1 1-2 3-2l2 2 2 2v2h3l1-2 1-2 2-1h1v2l-1 8-4 14-1 1-4 14-2 8v1l-3 9-1 7v2l1 1 4-1 5-3 1-1 1-1 5-4 2-1v-1h1v2l-2 2-2 2v2h1l1-1h2v1l-1 1h-1l-1 1v1l-1 1v1h3v2l1 1v1l-1 2-2 3-8 9-2 2-3 3-8 6-6 2h-2l-2-1-7-7c-2-4-3-8-3-13v-6-7-8a42 42 0 0 1 2-11l6-27zm19-39l-1-1v-6l-1-1-1 1-1 2v1l-1 2-2 1-1-1h-1l-1-4v-8l1-7v-2l2-4 3-6c1-2 3-3 6-3l3 1 1 2v6h1l1-1 1-2 1-2 1-2 4 2 2 4v12l-4 11c-2 3-5 5-10 5h-3zM364 153l1-11a853 853 0 0 1 7-41c1-8 3-13 5-13l2 2 1 3v6l1 1 1-1v-1l1-1 1-1 1-1 4 1 1 4v2l-1 1 1 2h1l1-2 1-2 2-1 1 1 1 1 1 3-1 2-1 5-3 12-4 13-2 7v1l1 1 2-2 3-4 1-2 1-1 15-26 9-12 1 1 2 1 1 1h1l1 1 1 1v1l1 1v1c2 0 4 2 5 4l2 6-1 10-1 9-1 3v3l-1 7v6l1 1 2 1 1-1 3-3 1-1 2-4 2-1h1v2l-1 1-1 1v4l1-1h2v2l-1 1-1 1-1 2v5l-1 1v2l1-1h1l1-1 1-1 1 1v1l-1 1-3 3-7 9-1 1-7 8-4 4-2 1h-4l-2-1-3-4-3-5-2-5v-8-12l1-4v-1l-1-3h-1l-1 1-3 5-8 14v1l-1 1-7 13c-2 4-4 5-5 5h-2l-2-1-2-1-2-3-2-2-1-2-4-7-2-8 1-14zM458 136a136 136 0 0 1 18-24l9-9 8-6 12-6 7-3h1l2 1 2 2-1 2-1 2-2 1v2l1-1h1l2 1 1 1 1 1-1 2-1 1h-1v1l1 1h1l1-1h3l1 2-9 7a127 127 0 0 0-41 43l-1 2-1 2-1 4v4l1 1 3 1c2 0 6-3 12-10 5-6 14-17 24-33v-1l1-1 1-1 2-1 3 1 1 2 1 1 1 1 1 2 1 1 1 1 2 3 1 2-1 5-1 7-2 7v7l2 1 2-2 5-4 2-3 2-3 1-1v-2h1l1 1-3 4-5 7h1v1-1l2-1 1-1h1l1 1-1 1-2 2v1l-2 1v3l2-1 2-2 1-1 2-1v2l-1 1-2 2v1h2l1-1 1 1-4 5a94 94 0 0 1-7 8l-2 2-2 2-8 6-6 3h-2l-2-2-4-5-3-6-1-3v-4l1-2v-6h-1l-4 4-9 10-2 3-3 3-7 6-6 2h-2l-2-1c-3-1-6-5-9-10-3-4-4-11-4-19 0-10 3-19 8-29zM587 188l-2-5v-5-7l1-3v-8l-1-5c0-2-1-2-2-3l-5 7-8 14v2l-1 2-8 12-5 5c-2 0-3-1-4-3l-1-6v-5h-1l-1 2v6c-2 0-4-1-5-5l-1-10v-14l1-8a88 88 0 0 1 3-23l4-21 1-7 3-8 2-4 3 1 1 3v4h1l2-1 1 1v3h2l1-2 1-2 2-1h1l1 1 1 1 1 1 1 1v1l1 2 1 2-2 7-3 12v1l-3 11-1 7v1l1 1 1-2 5-5 10-16 10-15 6-7 3 1 1 2v1l1 1 2 1 4 4v3l1 6-1 3v11l-1 7-1 3 1 3v1l2-1 3-5 8-14 1-2 1-1 8-12 6-5 2 1 2 1 4 4 3 6 1 2v1l1 2v37l1 1h3l2-2 1-1 2-2 3-3 2-2v1h1l-1 2-1 2v1l-2 2-1 1v1h3v1l-1 1-1 1v1l1 1 1 1h1v1l-3 6-8 10-1 2-1 1a146 146 0 0 1-8 9l-6 4-5-2-3-4v-1l1-1v-3l-1-1-1 1v2l-1 1-1 1-1-1-1-3v-12l1-6v-10l-1-5c0-2-1-2-2-3l-1 2-3 4-7 13-4 6-4 5c-3 3-6 6-9 7l-2 1h-1l-8-2z"/>
      </g>
    </g>
  </g>
</svg>
