<?xml version="1.0" encoding="utf-8"?>
<svg id="Calque_1" xmlns="http://www.w3.org/2000/svg" viewBox="0 0 1000 1000">
  <style>
    .st5{enable-background:new}.st6{fill:#2602ff}.st11{fill:#ff0101}
  </style>
  <g id="Page-1">
    <g id="LogoVovinam" transform="translate(145)">
      <linearGradient id="Forme_1_" gradientUnits="userSpaceOnUse" x1="57.2158" y1="919.968" x2="57.2158" y2="918.968" gradientTransform="matrix(710.8014 0 0 -1000 -40313.6797 919968)">
        <stop offset="0" stop-color="#fefefc"/>
        <stop offset="1" stop-color="#feff00"/>
      </linearGradient>
      <path id="Forme" d="M710.8 640.1V0H0v640.1C0 858 159.2 1000 355.4 1000s355.4-142 355.4-359.9z" fill="url(#Forme_1_)" stroke="#1c00ff" stroke-width="3.4843"/>
      <g id="AmDuong" transform="translate(108.013937 421.602787)">
        <circle id="Oval" cx="247.4" cy="247.4" r="247.4" fill="#fff" stroke="#e2e2e2" stroke-width="3.4843"/>
        <linearGradient id="Path_1_" gradientUnits="userSpaceOnUse" x1="-51.1883" y1="497.4855" x2="-51.1883" y2="498.4855" gradientTransform="matrix(299.5356 0 0 -393.3392 15528.6641 196129.1719)">
          <stop offset="0" stop-color="red"/>
          <stop offset="1" stop-color="#d8d8d8"/>
        </linearGradient>
        <path id="Path" d="M345.7 350.3c0-54.2-44.1-98.3-98.3-98.3-59.3 0-107.5-48.2-107.5-107.5 0-2.1.1-4.2.2-6.3 0-.7.1-1.3.1-1.9.1-1.5.2-2.9.4-4.4l.3-2.1c.2-1.4.4-2.9.7-4.3.1-.6.2-1.2.3-1.9.4-2 .8-4 1.3-5.9 0-.1.1-.2.1-.3.5-1.9 1-3.7 1.6-5.6l.6-1.8c.5-1.3.9-2.7 1.4-4 .2-.6.5-1.3.8-1.9.5-1.3 1.1-2.6 1.7-3.9.2-.5.5-1.1.7-1.6.9-1.8 1.7-3.6 2.7-5.3.1-.1.1-.2.2-.3.9-1.6 1.8-3.2 2.8-4.8.3-.5.7-1.1 1-1.6.7-1.2 1.5-2.3 2.3-3.5.4-.6.8-1.1 1.2-1.7.8-1.2 1.7-2.3 2.6-3.4.4-.4.7-.9 1.1-1.4 1.2-1.5 2.5-3 3.9-4.5.1-.1.2-.3.4-.4 1.2-1.3 2.5-2.6 3.7-3.9.4-.4.9-.9 1.4-1.3 1-.9 2-1.9 3-2.8.5-.4 1-.9 1.5-1.3l3.3-2.7c.4-.3.9-.7 1.3-1 1.6-1.2 3.2-2.4 4.8-3.5 0 0 .1 0 .1-.1C105.6 80.6 46 157.1 46 247.2c0 110.9 90.3 201.2 201.2 201.2 54.4.2 98.5-43.9 98.5-98.1z" fill-rule="evenodd" clip-rule="evenodd" fill="url(#Path_1_)"/>
        <linearGradient id="SVGID_1_" gradientUnits="userSpaceOnUse" x1="-51.1883" y1="498.4855" x2="-51.1883" y2="497.4855" gradientTransform="matrix(299.5357 0 0 -393.3533 15631.5615 196127.0781)">
          <stop offset="0" stop-color="#2500ff"/>
          <stop offset="1" stop-color="#efeefd"/>
        </linearGradient>
        <path d="M247.4 46.2c-54.2 0-98.3 44.1-98.3 98.3s44.1 98.3 98.3 98.3c59.3 0 107.5 48.2 107.5 107.5 0 2.1-.1 4.2-.2 6.3 0 .7-.1 1.3-.1 1.9-.1 1.5-.2 2.9-.4 4.3l-.3 2.1c-.2 1.4-.4 2.9-.7 4.3l-.3 1.8c-.4 2-.8 4-1.3 6 0 .1 0 .1-.1.2-.5 1.9-1 3.8-1.6 5.6l-.6 1.8c-.5 1.3-.9 2.7-1.4 4-.2.6-.5 1.3-.8 1.9-.5 1.3-1.1 2.6-1.7 3.9-.2.5-.5 1.1-.7 1.6-.9 1.8-1.7 3.6-2.7 5.3-.1.1-.1.2-.2.3-.9 1.6-1.8 3.2-2.8 4.8-.3.5-.7 1.1-1 1.6-.7 1.2-1.5 2.3-2.3 3.4-.4.6-.8 1.1-1.2 1.7-.8 1.1-1.7 2.3-2.6 3.4-.4.5-.7.9-1.1 1.4-1.2 1.5-2.5 3-3.9 4.5l-.4.4c-1.2 1.3-2.5 2.6-3.7 3.8-.4.4-.9.9-1.4 1.3-1 .9-2 1.9-3 2.8-.5.4-1 .9-1.5 1.3l-3.3 2.7c-.4.4-.9.7-1.3 1.1-1.6 1.2-3.2 2.3-4.8 3.5 0 0-.1 0-.1.1 81.8-25.6 141.4-102 141.4-192.1-.2-110.9-90.5-201.1-201.4-201.1z" fill-rule="evenodd" clip-rule="evenodd" fill="url(#SVGID_1_)"/>
      </g>
      <path id="Vietnam" d="M288.2 560.2c-6.4 0-7.6-4.6-3.7-13.7l4-5.9h19c7.3.8 13.1-.4 17.5-3.5 6.6-4.7 21.4-11.9 21.4-16.1s7-9.4 14.1 0c4.8 6.3 17.3 8.4 37.4 6.5 5.9 2 8.9 5.2 8.9 9.6 0 6.5 3.8 15.5 9.3 15.5 5.5 0 14.2 6 0 10.2-14.2 4.2-34.9 23.6-34.9 35 0 11.3-8.8 10 0 36.1 8.8 26 53 86.1 49.1 96-3.8 9.9-21.2 44.5-32.5 59-10.1-2-18-2-23.7 0-1.4 5.4-4.1 8.1-8 8.1-5.8 0 5.8 24.8 0 24.8s-19.9-5.4-19.9 0-.9 25.2-8.9 25.2-13.6-32.4-19.9-38.2c-6.3-5.8-22.5 5.8-25.8 0-3.3-5.8-6.6-11.3-3.3-15.6 3.3-4.3 40.1-22.1 49-18.3 8.9 3.8 11.9 3.9 11.9 0s-6.5-16.8-6.5-22.4 15.5-7.7 23.4-3.8c5.3 2.6 8-.3 8-8.7 2.9-24 2.9-38.3 0-42.8-4.3-6.8-24.2-55.8-36.8-63.3-2.5-6.7-.7-13.8 5.4-21.1 4-3.1 5-5.8 3-8-3-3.4-9.1-20-20.9-24.1-11.2 6.3-21.1 0-21.1 0s-6-20.5-15.5-20.5z" fill="#feff00"/>
      <g id="VietVoDao" transform="translate(38.327526 243.902439)">
        <g class="st5">
          <path class="st6" d="M92.5 31c-.1.6-.5 1-1.3 1.2-.8.2-1.6.4-2.3.5-4.4 2-8.5 6.6-12.6 13.6-2.7 4.6-4.8 9.2-6.4 13.8l-8.3 24.5 1.3 1.6c.3.3.7.7 1.3 1 .6.3 1.1.6 1.4.7 2 .5 3.4.8 4.1 1 .7.2.8.6.4 1.1-4.2 1.2-8.6 2.5-13.1 3.9s-8.5 3.5-12 6.2c-1.8 1.4-3.3 2.7-4.6 4-1.3 1.3-2.1 2-2.7 2.2-.4.1-.9-.9-1.6-3-.7-2.1-1.3-4.2-1.9-6.2l-20-56.2c-.8-2.2-1.2-3.5-1.3-3.7-.9-1.9-2.3-3.5-4.1-4.7-.2-.1-1-.3-2.5-.5s-2.2-.6-2.2-1.2c.1-.5.3-.8.8-.9.5-.1.9-.1 1.1-.1h46.5c1 0 1.5.3 1.7.9.1.5-.9.9-3 1.3s-3.5 1-4.2 1.8c-1.3 1.7-2 3.5-2 5.2 0 .6.1 1.3.3 2l4.5 14.5 10 27.1 6.3-21.1c.6-1.8 1-3.7 1.3-5.7.3-2 .4-4.2.4-6.4 0-3.6-.4-6.7-1.1-9.5-.8-2.8-1.9-4.7-3.3-5.9-1-.8-2.3-1.4-4-1.7-1.7-.3-2.5-.8-2.5-1.4 0-.3.1-.5.4-.6.6-.3 1.2-.5 1.9-.5h31.3c.4 0 .8.1 1.2.4.7.2.9.5.8.8zM133.9 101.2c0 .5-.6.8-1.8.8H93.5c-.6 0-1-.3-1-.7 0-.9 1-1.4 2.9-1.7 1.9-.3 3.1-.6 3.7-1 .9-.7 1.4-1.4 1.5-2.4.2-.9.2-2.2.2-3.9V68.4c0-1.1-.1-2-.3-2.7-.2-.8-.6-1.4-1.1-2-.6-.6-1.6-1-3.1-1.3-2.4-.5-3.6-1.2-3.5-1.9.1-.3.4-.6 1-.7.6-.1 1.2-.2 1.7-.2 2.5 0 4.7-.1 6.6-.3 1.9-.2 4.2-.5 7-.9s6.8-1.3 12.1-2.6c2.3-.6 3.8-.9 4.4-.9.2 0 .3.4.3 1.1 0 .4 0 1.1-.1 2.1s-.1 1.7-.1 2.1v31.4c0 1.7.1 3.1.4 4.2.3 1.1.9 2 1.8 2.6.5.3 1.6.7 3.4 1 1.7.3 2.6.9 2.6 1.8zm-6.5-66.9c.7 1.4 1 2.9 1 4.5 0 4.4-2.1 8-6.3 10.8-2.1 1.5-4.6 2.2-7.6 2.2s-5.7-.7-8.1-2.2c-2.3-1.5-3.8-3.5-4.5-6-.3-1.3-.4-2.3-.4-2.9 0-2.6.8-5 2.4-7.2 1.6-2.2 3.7-3.8 6.4-4.9 2-.7 3.9-1.1 5.8-1.1 2.5 0 4.7.6 6.7 1.7 1.9 1.1 3.5 2.8 4.6 5.1zM194 82.5c.3.1.5.5.5 1 0 1.8-1.2 4.2-3.5 7.1-2.8 3.6-6.4 6.6-10.7 8.9-5.5 3-11.6 4.5-18.2 4.5-6.9 0-13.2-1.8-18.8-5.5-6.7-4.4-10-10.1-10-17.2 0-8 3.6-14.5 10.7-19.3 6.4-4.3 13.9-6.4 22.7-6.4 6.6 0 12 .9 16.2 2.7 4.2 1.8 7.2 4.6 9 8.5.5 1.1.8 1.9.8 2.6 0 .2-.1.5-.2.9-.2.3-.4.6-.7.8-.3.2-1 .4-2.1.6l-30.1 8.1 1.1 2.4c1.6 3.4 3.7 5.8 6.3 7.3 2.6 1.5 5.9 2.2 9.7 2.2 3.8 0 7.1-1 10.1-3 2.4-2.1 4.8-4.1 7.2-6.2zm-8.8-34.8c.3.5.4 1.1.4 1.7 0 .5-.2.8-.5.9-.6.1-1.1.1-1.4-.1l-18.7-10-18 9.8c-.7.3-1.2.4-1.6.1-.3-.2-.4-.7-.1-1.6.1-.3.1-.5.2-.8l14.9-18.9h9.1l15.7 18.9zm-14.3 20.4c0-2.8-.4-5.2-1.2-7-1-2.4-2.5-3.6-4.5-3.6-2.4 0-4.3 1.5-5.4 4.6-.9 2.3-1.4 5-1.4 8 0 1.1.1 2.3.2 3.6.1 1.4.3 2.5.4 3.5l5.6-1.1c1.1-.2 2-.4 2.6-.6.6-.2 1.3-.7 1.9-1.3.6-.6 1.1-1.4 1.3-2.4.4-1.1.5-2.3.5-3.7zM245.7 91.5c-1.3 4.4-4 7.5-8 9.4-3.3 1.6-7.6 2.4-12.9 2.4-6.3 0-11.5-.9-15.5-2.6-5.3-2.2-7.9-5.7-7.9-10.3V59.1h-8.8c-.4-.2-.6-.6-.5-1.3.1-.6.9-1 2.5-1.2 5.4-.7 9-1.3 10.8-2 1.8-.7 4.1-2.4 6.8-5.1 3.6-3.5 5.9-7.1 7-10.9l1-3.2c.2-.6.6-1.1 1.2-1.4.6-.3 1.3-.5 2.1-.5.9 0 1.7.3 2.4.8.3.3.5 1 .5 2.1v20.2H240c.2 0 .5.1.9.3.4.2.6.5.6.9 0 .9-.5 1.3-1.6 1.3h-13.4v28.8c0 7 2.6 10.5 7.7 10.5h.9c3.1-.3 5.3-1.5 6.7-3.9 1.1-2.4 2.1-4.8 3.3-7.2.7 0 1.1.5 1.1 1.6 0 .7-.2 1.6-.5 2.6z"/>
        </g>
        <g class="st5">
          <path class="st6" d="M329.4 31c-.1.6-.5 1-1.3 1.2-.8.2-1.6.4-2.3.5-4.4 2-8.5 6.6-12.6 13.6-2.7 4.6-4.8 9.2-6.4 13.8l-8.3 24.5 1.3 1.6c.3.3.7.7 1.3 1 .6.3 1.1.6 1.4.7 2 .5 3.4.8 4.1 1 .7.2.8.6.4 1.1-4.2 1.2-8.6 2.5-13.1 3.9s-8.5 3.5-12 6.2c-1.8 1.4-3.3 2.7-4.6 4-1.3 1.3-2.1 2-2.7 2.2-.4.1-.9-.9-1.6-3-.7-2.1-1.3-4.2-1.9-6.2l-20.2-56.2c-.8-2.2-1.2-3.5-1.3-3.7-.9-1.9-2.3-3.5-4.1-4.7-.2-.1-1-.3-2.5-.5s-2.2-.6-2.2-1.2c.1-.5.3-.8.8-.9.5-.1.9-.1 1.1-.1h46.5c1 0 1.5.3 1.7.9.1.5-.9.9-3 1.3s-3.5 1-4.2 1.8c-1.3 1.7-2 3.5-2 5.2 0 .6.1 1.3.3 2l4.5 14.5 10 27.1 6.3-21.1c.6-1.8 1-3.7 1.3-5.7.3-2 .4-4.2.4-6.4 0-3.6-.4-6.7-1.1-9.5-.8-2.8-1.9-4.7-3.3-5.9-1-.8-2.3-1.4-4-1.7-1.7-.3-2.5-.8-2.5-1.4 0-.3.1-.5.4-.6.6-.3 1.2-.5 1.9-.5h31.3c.4 0 .8.1 1.2.4.9.2 1.1.5 1 .8zM394.5 78.2c0 7.7-3.5 13.8-10.6 18.6-6.4 4.3-14 6.4-22.9 6.4-8.7 0-16.3-2-22.8-6-7.3-4.5-10.9-10.5-10.9-17.9 0-7.5 3.6-13.6 10.8-18.1 6.5-4.1 14.1-6.1 22.9-6.1 8.8 0 16.3 1.9 22.7 5.6 7.2 4.2 10.8 10.1 10.8 17.5zm-26.9 3.4v-5.2c0-5.7-.3-9.9-.8-12.5-.9-4.6-2.8-6.9-5.7-6.9-2.9 0-4.8 2.2-5.8 6.7-.6 2.7-.9 6.9-.9 12.7v5.2c0 6.1.3 10.3.8 12.8 1 4.6 3 6.8 5.9 6.8 2.8 0 4.7-2.2 5.6-6.7.6-2.8.9-7.1.9-12.9z"/>
        </g>
        <path id="Fill-1" d="M380.7 32.7c-3.2 11.7-14.6 17-26.5 11.7-9.6-4.3-9.9-4.3-16.2-1.4 1.1-11.6 12.1-18.1 23-13.7 2.7 1.1 5.3 2.9 8.1 3.3 3.8.5 7.8.1 11.6.1" fill-rule="evenodd" clip-rule="evenodd" fill="#2602ff"/>
        <circle class="st6" cx="165.5" cy="123.7" r="12.2"/>
        <circle class="st6" cx="524.4" cy="123.7" r="12.2"/>
        <g class="st5">
          <path class="st6" d="M486 66.7c0 10.5-4.1 19.1-12.2 25.8-7.7 6.3-16.8 9.5-27.5 9.5h-44.7c-.6 0-1 0-1.2-.1-.5-.1-.7-.5-.7-1.1 0-.6 1-1.1 2.9-1.4 1.9-.4 3.2-.9 3.9-1.5 1-1.1 1.6-2.4 1.9-3.9.3-1.4.4-3.2.4-5.3V43v-1.8c0-.6 0-1.2.1-1.8 0-1.5-.1-2.7-.4-3.6-.3-.9-.9-1.8-1.8-2.6-.5-.5-1.5-.8-2.9-1-2.5-.4-3.8-.8-4-1.1-.3-.6-.1-1 .4-1.2.3-.1.8-.2 1.5-.2h46.6c10.5 0 19.4 3.5 26.7 10.4 7.4 7 11 15.8 11 26.6zm-33 9V50.4c0-5.3-.3-9.2-.9-11.7-1-4.1-2.9-6.4-5.7-6.9-.3-.1-.6-.1-1.1-.1-1.8 0-3.4.9-4.7 2.6-1.3 1.7-1.9 4.1-1.9 7.3v50.7c0 2 .5 3.8 1.6 5.3s2.5 2.2 4.4 2.2c3.5 0 5.9-2 7.1-6 .9-2.8 1.3-7 1.3-12.8v-5.3zM558.7 91c.3.2.5.5.5 1 0 2.1-1.6 4.5-4.9 7.1-4 3.2-8.6 4.7-13.8 4.7-4.5 0-8.2-.8-10.9-2.4-2.7-1.6-4.7-3.8-6-6.6-1.8 2.9-4.2 5.1-7.1 6.5-2.9 1.4-6.3 2.1-10.1 2.1-4 0-7.4-.7-10.1-2.2-3.2-1.7-5.1-4.3-5.9-7.6-.3-1.1-.4-2.2-.4-3.3 0-5 3.3-8.8 10-11.4 5.3-2.1 11.6-3.1 18.9-3.1h4.3V63.2c0-1.9-.6-3.4-1.7-4.4-1.2-1-2.4-1.5-3.8-1.5-1.6 0-2.7.6-3.3 1.8-.3.8.1 1.9 1.4 3.2 1.3 1.4 1.9 2.6 1.9 3.7 0 3.1-1.4 5.4-4.2 7.2-2.4 1.5-5.3 2.2-8.7 2.2-3 0-5.6-.8-7.8-2.3-2.4-1.7-3.7-4-3.7-6.7 0-4.2 3.1-7.2 9.3-9 4.6-1.4 10.6-2.1 17.8-2.1 8.1 0 14.2.6 18.3 1.9 6.4 2 9.6 5.6 9.6 10.9V89c0 1.6.3 3.1 1 4.3.7 1.2 1.7 1.8 3.2 1.8 1.8 0 3.4-1 4.7-3.1.6-.9 1.1-1.2 1.5-1zm-35.6-5.8v-7.8c-1.1 0-1.9.1-2.7.3-.7.2-1.5.7-2.2 1.3-.7.6-1.4 1.5-1.9 2.7-.5 1.2-.8 2.4-.8 3.7v2.8c0 2 .2 3.7.7 5.1.5 1.4 1.5 2 2.9 2s2.4-.6 3-1.9c.7-1.3 1-4 1-8.2zM630.1 78.2c0 7.7-3.5 13.8-10.6 18.6-6.4 4.3-14 6.4-22.9 6.4-8.7 0-16.3-2-22.8-6-7.3-4.5-10.9-10.5-10.9-17.9 0-7.5 3.6-13.6 10.8-18.1 6.5-4.1 14.1-6.1 22.9-6.1 8.8 0 16.3 1.9 22.7 5.6 7.2 4.2 10.8 10.1 10.8 17.5zm-26.9 3.4v-5.2c0-5.7-.3-9.9-.8-12.5-.9-4.6-2.8-6.9-5.7-6.9-2.9 0-4.8 2.2-5.8 6.7-.6 2.7-.9 6.9-.9 12.7v5.2c0 6.1.3 10.3.8 12.8 1 4.6 3 6.8 5.9 6.8 2.8 0 4.7-2.2 5.6-6.7.6-2.8.9-7.1.9-12.9z"/>
        </g>
        <text transform="translate(558.9931 102)" class="st6" letter-spacing="-2" font-size="94.0767" font-family="TiffanyHeavy">
          
        </text>
      </g>
      <g class="st5">
        <path class="st11" d="M88.4 24.8l3.1-2.5 2.9-2.2 2.2-1.1h4.5l2.5 1.3c.9.4 1.3 1.2 1.3 2.2l-.2 1.8v1.3l-.2 1.3v2.2l.7.2.8-.3.7-.4.7.4.2.7v.5l-.2.9-.2.9-.4.7.2 1.3.9.2.9-.4h.4l.7-.2.9.7.2 1.6-.7 3.1-1.8 6-4.3 16-5.8 24.8-1.6 7.3-1.4 7.1-5.9 31.9c-1.6 10.6-2.5 18-2.5 22.2v5.6c0 3.1.4 5.9 1.1 8.4.7 2.5 2.2 3.8 4.3 4.1 2.2 0 4.3-1.4 6.3-4.2.7-1 1.7-2.5 2.9-4.5 1.2-1.9 2.2-3.9 3.1-5.8l2-4 2-4.2c2.7-6 4.9-11.9 6.7-17.9.4-1.6 1.3-4.8 2.7-9.4.7-2.8 1.6-6 2.5-9.6 2.2-9.4 3.8-18.6 4.7-27.7.4-4.6.8-8.9 1.1-12.8.3-3.9.4-7.8.4-11.5 0-1.8.3-3 .9-3.6.3-.6 1.1-1 2.5-1.1 1.5 0 2.9.7 4.1 2 1.3 1.3 1.9 3.2 1.9 5.6V68c0 1.3.1 2.2.5 2.7l.9.7.7-.4.7-1.1.2-.9.7-1.6 2-.9c.8 0 1.3.4 1.6 1.3l.5 3.6.2.7.7.4.7.7.9.7.7 1.8.2 2.5v.9l-.2 1.6-.2 2V84l.2 1.1.9.4.7-.7.9-1.6.9-1.6.9-.7c.6.3 1 .6 1.1.9l.7 1.8v2c0 3.3-.2 6.6-.7 10.1-.4 3.4-1.3 7.5-2.5 12.3-1.9 9.4-4.5 18.4-7.8 27-3.9 11-8.4 21.4-13.5 31.1-5.1 9.7-10.6 17.7-16.4 24.1l-1.8 1.6-1.3 1.3-2.7 2.7-3.1 3.8-5.4 5.1c-1.6 1.3-3.7 2.2-6.2 2.5-2.7 0-5-.6-6.9-1.8-2.1-.9-3.9-2.1-5.6-3.6l-1.6-1.1-1.3-1.1c-7-5.4-11.2-11.9-12.7-19.5s-2.2-16.6-2.2-27.1c0-6.1.4-12.7 1.3-19.7l3.4-21.2 1-6.2 1.3-6.2 2.9-15.8 2.4-14.7v-.9l-.4-1.1c-.4-.4-.8-.7-1.1-.7-1 0-2.2.6-3.3 1.8L64.7 72l-2 1.8-1.8 1.6-2.7 1.6-2.7.7c-.9-.1-1.4-.3-1.6-.4l-.1-1.3.2-.7.7-.9.7-.9.2-1.1V72c-.1-.7-.3-1.2-.4-1.3l-1-.7-.9.4-.9.9-1.3.9-1.6.4-1.1-.4-.4-1.5.2-.9.7-.9.4-.9.2-.9-.4-.7-.7-.4-.7-.2c-.7.2-1.2.3-1.3.4l-1.1 1.1-.4.4-1.6 1.3-1.3.8-.7-.2-.4-.7v-.4l.7-1.8 1.8-1.8 45-40.1zM230 135.9l-1.8 7.6c-2.1 7.1-5.1 13.8-9.1 20-1.9 3.4-3.9 6.5-5.9 9.1-2 2.7-4.2 5.2-6.6 7.6-3.1 3.1-6.2 5.8-9.4 8-3 1.6-5.7 2.6-8 2.9H187l-2-.4-1.6-.4H180.9v.6l.4.6 1.1.6h1.8l1.1 1.1h1.1l-3.8.7h-6.5c-1.6 0-3.2-.3-4.8-.9-1.6-.6-3.2-1.5-5-2.6l-3.1-2.9-2.9-3.4-2.2-2.9-1.6-2.7c-1.2-2.1-2.1-4.3-2.7-6.5l-.9-9c0-14.8 3.3-27.8 10-38.9s16.2-20.7 28.5-29l1.6.4 1.8.7h.2l2.5.7h2.2l-.4-.7-.9-.9-.7-.4-2-1.1-.7-.8 1.8-1.3 2.2-1.3 3.1-1.6 2.5-.7c3.1 0 6.2 1 9.1 3.1 3 2.1 5.5 4.5 7.6 7.1l2 2.4 1.6 2.2 1.8 3.3 1.6 3.1c.9 3 1.4 5 1.7 6 .2 1 .3 2.5.3 4.2l.4 8.7-.7 7.7zm-24.1-9.5c-.4-2.1-1.3-3.9-2.7-5.6l-.4-.4-.4-.7-1.6-1.3-1.3-1.6-2.2-1.1c-.4-.4-1-.7-1.8-.7-3.1 0-5.8 1.8-7.9 5.4-2.2 3.6-4.2 7.9-6.1 12.9l-2.2 8.9-.7 6.7v4l.7 4.5c.4 3.3 1.4 6.2 2.8 8.7 1.4 2.5 3.9 3.8 7.5 3.8 3.9 0 7.1-2.1 9.7-6.2 2.6-4.2 4.4-8.8 5.5-13.8l1.6-9.1.4-7.4-.9-7zM235.5 157.2l.7-9.1 3.3-22.3c.7-4.2 1.4-7.6 2-10.3.6-2.7 1.4-5.9 2.6-9.8 1.1-3.9 2.3-7.3 3.7-10.4 1.3-3 2.5-4.7 3.6-5 1 0 1.8.1 2.2.4.6.9.9 1.6.9 2l-.2 1.6-.2 1.1-.2.9-.2.7v2.2l.7.7.9-.7.7-1.6.5-.9c.3-1 .6-1.7.9-2l1.6-.9.7.7V100.3l-.9 1.6v1.3l.9 1.3v.4l.9-.9.9-2.5.9-2 .9-1.1 1.1.7.4 1.1v.2l.2 1.3.9.4.7-.4.4-.4.4-.9.9-.9 1.3-.7c.9 0 1.7.4 2.5 1.1l1.3 2.5v.9l-.4 2.5c0 1-.4 2.2-1.1 3.6-.6 2.4-1.4 4.7-2.4 6.9l-3.1 9.4-1.3 4.7-1.3 4.7-2.9 12-1.1 9.8v.9c0 2.1.4 3.9 1.1 5.4.7 1.5 2.2 2.3 4.5 2.5 4.2 0 7.9-4.8 11.3-14.3 3.3-9.5 6.4-20.4 9.3-32.6l4-20.3 2.9-16.7c.1-1 .3-1.7.4-2V78l1.4-3.1 2.2-.9c1.4 0 2.4.4 2.9 1.3v11l.9.7.7-.2.7-.7.5-.4.5-.9 1.4-1.3c.5-.4 1.2-.7 2.3-.7l.7.2.9.2c.8.3 1.2.6 1.4.9l.7 1.3-.2 1.3v1.8l-.2 2.7v5.6c.4.6.8.9 1.1.9l.7-.7.7-1.6.2-.2.4-1.6 1.1-.9.9.4.2 1.1v1.1c0 15.6-3.2 30.7-9.6 45.3-6.4 14.6-13.4 26.4-21.1 35.5-2.7 3.1-5 5.7-6.9 7.6-1.9 1.9-4.3 4-7.1 6.2-4.6 3.3-8.3 4.9-11.1 4.9-2.4 0-4.5-.6-6.4-1.8-1.9-1.2-3.7-2.6-5.3-4.2l-1.1-.9-.9-.9-2.9-2.9-2.4-2.7c-.7-1.2-1.4-2.2-1.9-3.1-.5-.9-1-2-1.4-3.3s-.7-2.6-.9-3.7c-.1-1.1-.2-2.9-.2-5.2v-8.9zM324.4 116.8l1.1-3.8 1.6-4.7.5-1.3 1.6-5.1 1.4-4 .7-1.8 1.1-1.3.7-.7.7-.2c1 .4 1.7.9 2.1 1.2.4.4.6 1.2.6 2.3V100.3h-.4l-.4 1.8v1.8l.2.9h1.6l.4-1.6.9-1.8 1.8-2.7c.7-.9 1.8-1.3 3.1-1.3 1 0 1.9.4 2.5 1.1l1.3 2 .2.9.7 2h1.1c.7-.3 1.2-.6 1.3-.9l1.3-2 .9-2 1.6-.9 1.3.7.4 1.8-1.7 7.8-4.1 14.5-.2.9-4.2 14-2.2 7.4-.2.9-2.9 9.8-.9 6.2.2 2.7 1.3.9c1 0 2.2-.4 3.6-1.1l4.5-3.1 1.1-.9 1.3-.9 4.9-4c.9-.9 1.5-1.4 1.8-1.6.3-.1.5-.3.7-.4l.7.2v1.7l-1.7 2.1h-.2L356 159l-.5 1.3.2.7 1.4-.2.7-.4.5-.4.7-.2.7.2v.7l-.7.9-1.1.9-.7.7-.4.5-.4.9-.2.7.3.7h2.3l.3.9.3.7.5 1.1V170.5c-.3.6-.5 1-.6 1.3-.6.9-1.4 2.1-2.6 3.6l-7.3 8.3-2.6 2.7-2.6 2.5-7.7 6.1c-2.2 1.2-4.2 1.9-6 2.2h-2.2c-1.2-.3-1.9-.6-2.2-.9-2.4-1.3-4.7-3.8-6.9-7.4-1.9-3.9-2.9-8.2-2.9-13v-6-7.2-7.6c0-1.9.1-3.9.4-6 .3-2 .7-3.9 1.1-5.5l6.6-26.8zM343 78.3l-.9-1.6v-5.9l-.7-.4c-.8 0-1.4.3-1.9.8l-.7 2.1v1l-.9 1.4-1.6 1.1c-.3-.1-.6-.2-1-.3-.4-.1-.7-.4-1-.8l-1.3-3.9-.2-1.4V69l.2-5.5.7-6.2.7-2.7 1.1-3.5c.9-2 2.1-4 3.5-6s3.3-2.9 5.5-2.9c1.1 0 2.1.3 3.1.8s1.5 1.3 1.5 2.4v1.1l-.2.7-.2 1.8v.9l.2 1.1h.7l.9-.9 1.3-2.5.9-2 1.1-1.1c1.8 0 3.1.6 4 1.8.9 1.2 1.6 2.5 2 3.8V57.2l-.2 4.5c-.5 4.3-1.8 8.1-3.9 11.4-1.8 3.4-5.2 5.1-10.1 5.1H343zM364.4 152.8c0-3.7.2-7.2.6-10.6.4-3.3 1.1-8.9 2.2-16.7 1.1-7.8 2.6-16 4.3-24.5 1.8-8.5 3.7-12.8 5.8-12.8.7 0 1.3.5 1.8 1.6l.7 3.3v2c0 1.9.1 3.2.4 3.8l.9 1.1.9-1.1.4-.7.2-.9 1.1-1.6 1.8-.9c1.6 0 2.7.4 3.3 1.1.6.4 1 1.9 1.1 4.5l-.2 1.1v.9l-.2.9.2 1.6.7.4.4-.7 1.1-1.8 1.1-1.6 1.6-.9c.3.2.6.3 1 .4.4.1.7.4 1 .9l.9 2.9c0 .9-.1 1.8-.2 2.7-.6 1.9-1 3.6-1.3 4.9l-3.3 12-3.6 12.5-1.6 7.4v1.3l.9.4c.9-.6 1.5-1.2 1.8-1.8l2.7-4.2.9-1.3.9-1.6 15.7-25.6c4.3-7.6 7.1-11.5 8.3-11.8l1.8.4 1.3.9.4.4.7.4.7.9 1.1.4c.7.3 1.2.7 1.3 1.1l.4 1.1v.4l.2.7.4.7c1.9.6 3.6 1.9 4.9 4 .9 1.5 1.5 3.5 1.8 6l-.7 9.8c0 2.7-.4 5.9-1.2 9.6l-.7 3.1-.5 3.1-.7 6.2v6.2c.3.9.6 1.4.9 1.6l1.8.4 1.8-.9 2.2-2.5.4-.9.9-.9 2.5-3.3 1.8-1.6.7.4.4.7-.2.9-.4.4-.4.7-.9 1.1-.7 1.3v1.3l.7 1.1.4-.4.4-.2.9-.4.9.7v.4l-.4 1.1-.9 1.6-.4.4-.9 1.8v4.2l-.8 1.1-1 .9v1.3l.9.7.9-.4.9-.9.9-.9.9-.4.7.5.2.9c-.3.6-.6 1-.8 1.3-.7.9-1.6 2-2.8 3.4l-6.9 8.3-.7.4-.4.7-7.1 7.9-3.8 4-2.7 1.8h-4l-1.8-1.3-3.1-3.8-2.7-4.9-2.2-5.2v-7.8V159l.7-4.3v-.9c0-1-.1-1.8-.4-2.4-.3-.5-.6-.8-.9-.8-.6.6-1 1.1-1.3 1.6-1.3 1.6-2.5 3.3-3.3 4.9l-7.4 13.8-.7 1.3-.7 1.3c-2.4 4.8-4.7 8.9-7 12.5-2.3 3.6-4.1 5.4-5.2 5.4l-1.8-.2-1.8-1.1-2.5-1.6-2-2.2-2-2.2-1.1-1.8-4-7.8c-.7-2.2-1.3-4.6-1.6-7.1l1.4-14.6zM458.3 135.9c2.8-4.9 5.6-9.3 8.4-13.1 2.8-3.8 5.9-7.6 9.5-11.3l9.1-8.5 8-6 11.4-6.3c3.4-1.8 5.7-2.7 6.9-2.7h1.3c.9 0 1.7.4 2.5 1.1.9.4 1.3 1.1 1.3 2l-.7 2.2-1.1 1.8-1.6 1.3v1.4l1.1-.4 1.1-.2 1.3.4c.7.3 1.3.6 1.6 1 .3.4.4.9.4 1.7-.1.7-.3 1.2-.4 1.3l-.9.9-.4.4-.7.4-.2.7.4.9 1.1-.2c.7-.1 1.2-.3 1.3-.4l1.1-.4 1.3-.2 1.1.7.4 1.6c0 .7-3 3.1-9 7.1-5.4 3.3-11.8 8.4-19.3 15.4-3.7 3.6-7.6 7.7-11.7 12.3-3.5 4.3-6.7 9.3-9.7 14.9l-1.4 2.5-.9 2.2-.9 3.6v3.6c.4.9.8 1.5 1.1 1.8l2.9.4c2.1 0 6-3.2 11.7-9.5 5.7-6.3 13.9-17.6 24.4-33.8l.4-.7.4-.9 1.6-1.3c.4-.4 1-.7 1.8-.7.9 0 1.7.3 2.5.9l1.6 2 .7 1.3.7 1.1.9 1.6 1.6 1.6.4.7 2.2 2.7 1.1 1.8-.7 5.8-1.3 6.5v.4l-1.6 6.5-.4 5.6c0 1 .1 1.7.4 2l1.6.4 2.2-1.8 4.5-4.5 2.2-2.7 2.2-2.9.4-.9.4-.9.4-.7.4-.4.7.2.4.7-2.5 4-5.6 7.1.9.4v.2l.6-.4 1.5-.9 1.1-.9.9-.4.6.4.7.7-.7 1.3-1.8 1.8-.2.4-1.8 1.8-.9 1.3v.7l.7.2 1.4-.7 1.9-1.6v-.2l1.8-1.3 1.3-.9.7.2-.3 1.6-.8 1.1-.5.4-1.6 1.6v.9l.7.4 1.1-.4 1.3-.2.7.7-3.8 4.7c-.7.9-1.7 2.1-3 3.6s-2.7 3-4.3 4.5l-2.2 2.2-2.1 2-8 6.2c-2.2 1.3-4.1 2.2-5.7 2.5h-2l-2.2-1.8c-1.3-1.1-2.7-2.6-4-4.8-1.3-2.1-2.4-4.3-3.1-6.6l-.8-2.5-.3-2.5.4-2c.2-1.1.5-1.7.7-2v-5.2c-.4-.5-.8-.7-1.1-.7l-4 4.5-8.1 9.6-2.7 3.1-2.9 2.9-6.7 5.8c-2.1 1.3-4 2.1-5.8 2.2h-2l-2-.7c-3.4-1.6-6.6-4.9-9.4-9.7-2.8-4.8-4.3-11.2-4.3-19.1.7-10 3.4-19.8 8.7-29.5zM587 188.4c-1.5-1.2-2.2-3.1-2.2-5.8v-4.5c0-1.8.2-3.2.7-4.2V171l.4-2.9v-8.2c0-1.8-.3-3.5-.9-5.1-.1-1.5-.7-2.3-1.8-2.5-.9 0-2.5 2.2-4.9 6.5l-7.9 14.3-.9 1.8-.9 1.8-7.4 12c-2.1 3.1-4 4.8-5.6 5.1-1.5 0-2.7-.9-3.6-2.7l-1.1-6V180.4l-.9-.4c-.8.6-1.1 1.1-1.1 1.6v6.2c-2.1.6-3.6-.9-4.6-4.4l-1.2-10.5v-13.5l.7-8.1c0-4.3.2-8.3.7-11.9 0-.3.7-4.3 2.1-11.9l4.3-20.6c.6-2.5 1.1-4.9 1.6-7.1.5-2.2 1.3-4.6 2.3-7.4s1.9-4.2 2.5-4.4c1.6 0 2.6.4 3 1.1l.4 2.7V95l.7.7 1.1-.2 1.1-.2 1.3.7.4 1.3V99l.7.4 1.1-.7.7-1.6.2-.4.9-1.8 1.8-.9 1.1.2 1.3.7 1.1 1.1c.1.7.3 1.2.4 1.3l.9.9.4.9 1.3 2c.4.4.7 1.2.7 2.2l-1.6 7.1-2.9 11.4-.2.7-3.3 11.6-1.3 6.7v.4l.2 1.1.9.4 1.6-1.6c1.2-1.3 2.6-3.2 4.2-5.6l10.3-15.8 9.8-14.9c3.1-4.5 5.1-6.7 6-6.7 1.6 0 2.7.3 3.3.9l1.3 1.8.2.7.9 1.1 1.3 1.1.4.4c1.8 1 3 2.5 3.8 4.2.3.9.5 1.9.7 2.9.1 1 .2 2.8.2 5.4l-.2 3.6-.2 3.6-.2 4c0 1.5-.2 2.7-.4 3.6l-1.1 6.2-.2 3.6.2 3.1c.3.7.6 1.1.9 1.1.6-.4 1.1-1 1.7-1.7.5-.7 1.5-2.2 3-4.6l8.3-14 .9-1.8 1.1-1.6 7.8-11.8c2.4-3.3 4.3-5 5.8-5.1l2 .7 2 1.3c1.2 1 2.5 2.5 3.8 4.5l3.1 5.6.7 1.8.7 1.6.4 1.8.4 1.8v9.3l-.2 3.1v3.6c0 2.5-.1 4.5-.4 6v8c0 2.7.1 4.3.3 4.8.2.5.5.9.9 1.2.4.3.6.4.8.4l2-.7 2.2-1.6 1.6-1.3 1.3-1.6 3.1-3.3 1.8-1.6.7.4.4.7-.6 1.8-1.2 2-.2.4-1.6 2.2-1.1 1.6v1.1h.8l1-.2h.8l.5.2-.4 1-.7.8-.9 1v1.2l.9.5.4.4.7.2.9.9.4.7-3.3 5.4-8.4 10.6-.9 1.4-1.1 1.1c-1.2 1.5-2.4 3-3.7 4.5-1.3 1.5-2.8 3.1-4.4 4.7-2.6 2.7-4.3 4.1-5.2 4.1-2.7 0-4.6-.6-5.8-1.7-1.1-1.1-1.9-2.6-2.2-4.3v-1.1l.7-.9v-2.7l-.7-.7-.9.7v1.4c-.3.7-.7 1.3-1.3 1.6-.5.3-1 .4-1.3.4-.3-.3-.5-.5-.5-.7-.5-.7-.8-1.6-.9-2.5l-.5-7.6.2-4.7c0-2.4.1-4.2.4-5.6v-.4c0-2.1.2-3.7.7-4.9V159.6c0-1.9-.3-3.5-.8-4.8-.5-1.3-1.2-2-2.1-2.3-.4.6-.8 1-1.1 1.3-1.3 1.5-2.4 3-3.1 4.5l-7.6 12.9c-1 1.9-2.2 3.8-3.5 5.5-1.3 1.7-2.7 3.5-4.3 5.5-2.5 3.3-5.4 5.7-8.5 7.1l-1.8.4-1.5.3c-3.7-.3-6.4-.8-8-1.6z"/>
      </g>
    </g>
  </g>
</svg>
